<svg xmlns="http://www.w3.org/2000/svg" version="1.1" viewBox="200 108.72 395.23 391.54">
 <g id="Layer_1">
  <title>Layer 1</title>
  <path transform="translate(346 54)" fill="#050502" d="m200,99.74033c12.06461,1.34051 24.69232,6.50777 32.75,16.125c0.7425,0.94875 1.485,1.8975 2.25,2.875c0.51563,0.495 1.03125,0.99 1.5625,1.5c2.50791,2.61695 5.4375,5.76847 5.4375,9.5c0.66,0 1.32,0 2,0c0.19336,0.65227 0.38672,1.30453 0.58594,1.97656c0.26039,0.87399 0.52078,1.74797 0.78906,2.64844c0.25523,0.85852 0.51047,1.71703 0.77344,2.60156c0.80765,2.78258 0.80765,2.78258 1.9414,5.42188c1.30315,4.79871 1.16,9.40374 1.09766,14.35156c-0.00064,0.97195 -0.00129,1.94391 -0.00195,2.94531c-0.02937,4.79017 -0.19147,9.34673 -1.18555,14.05469c-0.66,0 -1.32,0 -2,0c-0.06188,0.94875 -0.12375,1.8975 -0.1875,2.875c-0.70422,5.19627 -3.33299,9.57771 -5.8125,14.125c-0.66,0 -1.32,0 -2,0c-0.26812,0.5775 -0.53625,1.155 -0.8125,1.75c-1.21679,2.3055 -2.49084,4.27056 -4.1875,6.25c-0.66,0 -1.32,0 -2,0c0,0.66 0,1.32 0,2c-2.41406,1.91016 -2.41406,1.91016 -5.625,4.0625c-1.56621,1.06928 -1.56621,1.06928 -3.16406,2.16016c-3.20429,1.77366 -5.59445,2.42438 -9.21094,2.77734c0,0.66 0,1.32 0,2c-6.57925,1.97143 -12.59116,2.30352 -19.4375,2.25c-1.47823,0.0116 -1.47823,0.0116 -2.98633,0.02344c-7.83468,-0.02077 -14.89445,-1.15495 -22.26367,-3.83594c-3.41847,-1.18747 -6.71016,-1.97566 -10.3125,-2.4375c0,-0.66 0,-1.32 0,-2c-0.59168,-0.06059 -1.18336,-0.12117 -1.79297,-0.18359c-4.11681,-0.43653 -8.16248,-0.90312 -12.20703,-1.81641c0,-0.66 0,-1.32 0,-2c-0.92813,0.04125 -1.85625,0.0825 -2.8125,0.125c-3.1875,-0.125 -3.1875,-0.125 -6.1875,-2.125c-2.32388,-0.39388 -4.65794,-0.73486 -7,-1c1.64884,3.29769 3.17712,5.14459 6.0625,7.5c7.24865,5.9223 13.00029,14.60046 17.9375,22.5c0,0.66 0,1.32 0,2c0.66,0 1.32,0 2,0c13,23.03226 13,23.03226 13,33c0.66,0 1.32,0 2,0c0.20496,1.27617 0.40992,2.55234 0.62109,3.86719c0.27197,1.6693 0.54411,3.33857 0.81641,5.00781c0.13471,0.84176 0.26941,1.68352 0.4082,2.55078c0.1982,1.2085 0.1982,1.2085 0.40039,2.44141c0.12045,0.74363 0.2409,1.48725 0.36499,2.25342c0.32139,1.95824 0.32139,1.95824 1.38892,3.87939c0.08698,2.91699 0.11552,5.80983 0.09766,8.72656c-0.00213,1.29423 -0.00213,1.29423 -0.00429,2.6146c-0.00561,2.76131 -0.01816,5.52255 -0.03087,8.28384c-0.00501,1.86979 -0.00958,3.73958 -0.01367,5.60938c-0.01104,4.58857 -0.02831,9.17708 -0.04883,13.76562c-0.66,0 -1.32,0 -2,0c0.04125,1.11375 0.0825,2.2275 0.125,3.375c0.01801,5.02401 -1.00542,9.74682 -2.125,14.625c-0.66,0 -1.32,0 -2,0c-0.09281,1.63969 -0.09281,1.63969 -0.1875,3.3125c-0.74483,5.76743 -3.26078,10.52059 -5.8125,15.6875c-0.58778,1.26738 -1.17361,2.53566 -1.75781,3.80469c-9.16015,19.53691 -25.61434,40.85662 -44.24219,52.19531c-0.66,0 -1.32,0 -2,0c0,0.66 0,1.32 0,2c-2.18078,1.49967 -4.34264,2.85779 -6.625,4.1875c-0.67063,0.39566 -1.34127,0.79132 -2.03223,1.19897c-18.21167,10.61353 -18.21167,10.61353 -23.34277,10.61353c0,0.66 0,1.32 0,2c-6.36458,1.98541 -12.74951,3.72051 -19.23828,5.25391c-2.73806,0.6691 -2.73806,0.6691 -5.125,1.76562c-12.06485,4.48634 -27.08601,3.20555 -39.80231,3.27802c-1.69937,0.00983 -3.39873,0.02422 -5.09802,0.04358c-13.4355,0.13357 -25.92544,-0.93837 -38.73639,-5.34113c-1.66088,-0.36106 -3.32619,-0.70462 -5,-1c0,-0.66 0,-1.32 0,-2c-3.63,-0.66 -7.26,-1.32 -11,-2c0,-0.66 0,-1.32 0,-2c-2.97,-0.66 -5.94,-1.32 -9,-2c0,-0.66 0,-1.32 0,-2c-0.9075,-0.18563 -1.815,-0.37125 -2.75,-0.5625c-5.86346,-1.65628 -11.27857,-4.97627 -16.25,-8.4375c0,-0.66 0,-1.32 0,-2c-1.32,-0.33 -2.64,-0.66 -4,-1c0,-0.66 0,-1.32 0,-2c-1.65,-0.66 -3.3,-1.32 -5,-2c0,-0.66 0,-1.32 0,-2c-0.73662,-0.24839 -1.47324,-0.49677 -2.23218,-0.75269c-3.03161,-1.36619 -4.72569,-2.84609 -7.05298,-5.20434c-0.77795,-0.78311 -1.55589,-1.56621 -2.35742,-2.37305c-1.19786,-1.2288 -1.19786,-1.2288 -2.41992,-2.48242c-0.80244,-0.8076 -1.60488,-1.6152 -2.43164,-2.44727c-10.50586,-10.64535 -10.50586,-10.64535 -10.50586,-13.74023c-0.66,0 -1.32,0 -2,0c-1.57078,-2.36959 -3.02119,-4.72783 -4.4375,-7.1875c-0.59265,-1.0103 -0.59265,-1.0103 -1.19727,-2.04102c-0.77269,-1.31782 -1.54152,-2.63792 -2.30615,-3.96044c-0.92071,-1.57443 -1.87929,-3.12661 -2.84424,-4.67432c-1.21484,-2.13672 -1.21484,-2.13672 -1.21484,-4.13672c-0.66,0 -1.32,0 -2,0c-6.79305,-18.9502 -6.79305,-18.9502 -9,-27c-0.1882,-0.65871 -0.37641,-1.31742 -0.57031,-1.99609c-0.71575,-3.33798 -0.48644,-6.59872 -0.42969,-10.00391c-0.66,0 -1.32,0 -2,0c-2.0631,-29.76757 -2.0631,-29.76757 0,-41c0.33,-0.33 0.66,-0.66 1,-1c0.29431,-1.3363 0.53662,-2.68419 0.75391,-4.03516c0.13213,-0.80888 0.26425,-1.61777 0.40039,-2.45117c0.1347,-0.85013 0.26941,-1.70027 0.4082,-2.57617c0.13857,-0.854 0.27715,-1.70801 0.41992,-2.58789c0.34281,-2.11595 0.68066,-4.23271 1.01758,-6.34961c0.66,0 1.32,0 2,0c-0.63229,-1.33805 -0.63229,-1.33805 -1.27734,-2.70312c-0.54786,-1.17047 -1.09571,-2.34094 -1.66016,-3.54688c-0.54527,-1.16016 -1.09055,-2.32031 -1.65234,-3.51562c-4.6662,-10.70254 -4.10928,-25.29999 0.08984,-36.04688c0.79679,-1.74631 1.61513,-3.48413 2.5,-5.1875c0.66,0 1.32,0 2,0c0.66,-1.65 1.32,-3.3 2,-5c0.66,0 1.32,0 2,0c0.26555,-0.59812 0.53109,-1.19625 0.80469,-1.8125c3.3342,-6.1018 9.98007,-9.58454 16.19531,-12.1875c1.1898,-0.52723 2.37961,-1.05445 3.60547,-1.59766c4.91378,-1.82794 9.58693,-1.67707 14.76953,-1.65234c7.49465,-0.14745 12.70889,-0.63564 18.49219,-5.86328c4.95867,-4.38652 11.43892,-7.15461 17.32031,-10.13672c0.69803,-0.36352 1.39605,-0.72703 2.11523,-1.10156c3.55169,-1.79781 5.64501,-2.64844 9.69727,-2.64844c0,-0.66 0,-1.32 0,-2c3.96,-0.99 3.96,-0.99 8,-2c0.03738,-1.32773 0.07477,-2.65547 0.11328,-4.02344c0.63494,-18.20501 0.63494,-18.20501 3.88672,-25.97656c0.66,0 1.32,0 2,0c0.04125,-0.88688 0.0825,-1.77375 0.125,-2.6875c1.19996,-4.54269 3.16569,-5.53052 6.875,-8.3125c0.33,-0.66 0.66,-1.32 1,-2c6.02454,-2.80195 10.91747,-3.39655 17.5,-3.1875c0.82242,0.01354 1.64484,0.02707 2.49219,0.04102c2.00289,0.03493 4.00544,0.08872 6.00781,0.14648c0.91964,2.95418 1.12217,3.70815 -0.125,6.6875c-1.875,2.3125 -1.875,2.3125 -4.1875,3.4375c-4.17822,-0.19434 -5.76455,-2.20205 -8.6875,-5.125c0,-0.66 0,-1.32 0,-2c-1.77444,0.59349 -3.54446,1.20022 -5.3125,1.8125c-1.4792,0.50467 -1.4792,0.50467 -2.98828,1.01953c-2.60415,1.12683 -3.80749,2.13654 -5.69922,4.16797c-0.66,0 -1.32,0 -2,0c-0.66,2.31 -1.32,4.62 -2,7c-0.66,0 -1.32,0 -2,0c-0.66,8.91 -1.32,17.82 -2,27c4.95,-0.495 4.95,-0.495 10,-1c0,-0.66 0,-1.32 0,-2c11.31803,-1.93006 22.54097,-2.62133 34,-3c1.1318,-0.04254 2.26359,-0.08508 3.42969,-0.12891c14.11381,-0.27494 30.17537,0.57463 43.57031,5.12891c2.98848,0.72254 5.99049,1.37135 9,2c0,0.66 0,1.32 0,2c1.00289,0.09797 2.00578,0.19594 3.03906,0.29688c4.10896,0.59083 7.63418,2.13081 11.33594,3.95312c0.65267,0.31284 1.30534,0.62568 1.97778,0.948c4.35396,2.10769 8.62604,4.33808 12.81519,6.75903c1.91149,1.08821 3.85721,2.07527 5.83203,3.04297c0,0.66 0,1.32 0,2c0.72445,0.25395 1.44891,0.50789 2.19531,0.76953c2.97805,1.30652 5.131,2.91077 7.67969,4.91797c3.2267,2.27487 4.63881,3.26909 8.625,3.625c3.96007,-1.48503 7.29879,-3.41981 10.86328,-5.67969c10.71088,-6.63281 10.71088,-6.63281 14.63672,-6.63281c0,-0.66 0,-1.32 0,-2c3.465,-0.99 3.465,-0.99 7,-2c0,-0.66 0,-1.32 0,-2c1.89455,-0.96087 3.7907,-1.91859 5.6875,-2.875c1.05574,-0.53367 2.11148,-1.06734 3.19922,-1.61719c2.67324,-1.29469 5.34039,-2.44804 8.11328,-3.50781c0,-0.66 0,-1.32 0,-2c1.46875,-1.15625 1.46875,-1.15625 3.5,-2.5c7.61174,-5.53335 12.71309,-12.97946 16.5,-21.5c0.66,0 1.32,0 2,0c0.66,-3.63 1.32,-7.26 2,-11c0.66,0 1.32,0 2,0c0,-10.23 0,-20.46 0,-31z"/>
  <path transform="translate(122.813 132.75)" fill="#F6EA3B" d="m200,99.74033c0.9411,-0.00902 1.88219,-0.01805 2.85181,-0.02734c6.63539,0.02784 12.85453,0.88568 19.33569,2.27734c1.03097,0.22043 1.03097,0.22043 2.08276,0.44531c1.70515,0.37746 3.40522,0.77765 5.10474,1.17969c1.1073,0.26039 2.21461,0.52078 3.35547,0.78906c1.21623,0.29004 1.21623,0.29004 2.45703,0.58594c0,0.66 0,1.32 0,2c1.0725,0.04125 2.145,0.0825 3.25,0.125c5.18961,0.61979 9.3559,2.96884 13.91797,5.40234c2.56959,1.33619 5.12568,2.4485 7.83203,3.47266c0,0.66 0,1.32 0,2c0.72187,0.26813 1.44375,0.53625 2.1875,0.8125c4.29692,1.81426 7.55521,3.8901 10.8125,7.1875c1.24284,1.09154 2.49339,2.17434 3.75,3.25c14.09326,12.27979 14.09326,12.27979 16.25,18.75c0.68449,0.68256 0.68449,0.68256 1.38281,1.37891c11.94887,11.97773 16.68106,34.64313 16.93628,51.02685c-0.01672,5.94605 -0.37355,11.72115 -1.31909,17.59424c-0.66,0 -1.32,0 -2,0c-0.02578,0.89461 -0.05156,1.78922 -0.07812,2.71094c-0.37193,7.92885 -1.54634,14.1301 -4.92188,21.28906c-0.33,0.99 -0.66,1.98 -1,3c-0.66,0 -1.32,0 -2,0c-0.41959,1.09635 -0.41959,1.09635 -0.84766,2.21484c-4.07845,9.85742 -10.84503,17.22909 -18.15234,24.78516c-1.16209,1.23943 -1.16209,1.23943 -2.34766,2.50391c-5.57376,5.8238 -5.57376,5.8238 -9.65234,6.49609c0,0.66 0,1.32 0,2c-1.67969,1.28906 -1.67969,1.28906 -3.875,2.625c-0.7193,0.44602 -1.43859,0.89203 -2.17969,1.35156c-1.94531,1.02344 -1.94531,1.02344 -3.94531,1.02344c0,0.66 0,1.32 0,2c-3.84165,2.01687 -7.6866,3.65798 -11.76953,5.12109c-2.45211,0.96625 -4.74908,2.13641 -7.10547,3.31641c-19.5145,8.70241 -44.206,8.90411 -65.125,5.5625c0,-0.66 0,-1.32 0,-2c-1.63969,0.03094 -1.63969,0.03094 -3.3125,0.0625c-3.6875,-0.0625 -3.6875,-0.0625 -6.6875,-1.0625c0,-0.66 0,-1.32 0,-2c-1.29937,-0.0825 -2.59875,-0.165 -3.9375,-0.25c-5.20345,-0.55338 -9.43272,-2.3968 -14.0625,-4.75c0,-0.66 0,-1.32 0,-2c-0.76313,-0.14437 -1.52625,-0.28875 -2.3125,-0.4375c-2.6875,-0.5625 -2.6875,-0.5625 -5.6875,-1.5625c0,-0.66 0,-1.32 0,-2c-1.32064,-0.36932 -1.32064,-0.36932 -2.66797,-0.74609c-9.25891,-3.48431 -16.57592,-12.25699 -23.33203,-19.25391c-0.74379,-0.68449 -1.48758,-1.36898 -2.25391,-2.07422c-1.74609,-1.92578 -1.74609,-1.92578 -1.74609,-4.92578c-0.99,-0.33 -1.98,-0.66 -3,-1c-0.6875,-2.0625 -0.6875,-2.0625 -1,-4c-0.66,0 -1.32,0 -2,0c-0.66,-2.31 -1.32,-4.62 -2,-7c-0.66,0 -1.32,0 -2,0c-0.83986,-1.93468 -1.67168,-3.87285 -2.5,-5.8125c-0.46406,-1.07895 -0.92812,-2.15789 -1.40625,-3.26953c-1.09375,-2.91797 -1.09375,-2.91797 -1.09375,-5.91797c-0.66,0 -1.32,0 -2,0c-4.52285,-16.07227 -2.42043,-33.44571 3,-49c1.17251,0.95117 2.33787,1.91117 3.5,2.875c0.64969,0.53367 1.29937,1.06734 1.96875,1.61719c0.50531,0.49758 1.01063,0.99515 1.53125,1.50781c0,0.66 0,1.32 0,2c1.32,0.33 2.64,0.66 4,1c0,0.66 0,1.32 0,2c1.26844,0.40219 1.26844,0.40219 2.5625,0.8125c3.4375,1.1875 3.4375,1.1875 6.8125,2.6875c7.7131,3.19163 14.36989,3.77302 22.625,3.625c0.96551,-0.00902 1.93102,-0.01805 2.92578,-0.02734c2.35834,-0.02335 4.71614,-0.0561 7.07422,-0.09766c0,-0.66 0,-1.32 0,-2c2.31,-0.33 4.62,-0.66 7,-1c0,-0.66 0,-1.32 0,-2c-0.8482,0.28875 -1.69641,0.5775 -2.57031,0.875c-10.63642,3.36625 -20.33615,4.17998 -31.42969,2.125c0,-0.66 0,-1.32 0,-2c-1.45406,-0.09281 -1.45406,-0.09281 -2.9375,-0.1875c-4.94476,-0.66876 -8.87366,-3.23841 -13.0625,-5.8125c0,-0.66 0,-1.32 0,-2c-0.87592,-0.36158 -0.87592,-0.36158 -1.76953,-0.73047c-2.65899,-1.51343 -4.04819,-3.16876 -5.91797,-5.58203c-0.60199,-0.75926 -1.20398,-1.51852 -1.82422,-2.30078c-1.56944,-2.51687 -2.10075,-4.46734 -2.48828,-7.38672c-0.66,0 -1.32,0 -2,0c-3.66096,-10.83645 -4.02513,-25.14366 0.67578,-35.68359c4.06005,-7.10209 9.49662,-13.70036 16.32422,-18.31641c0.99,0 1.98,0 3,0c0,-0.66 0,-1.32 0,-2c1.37071,-0.65489 2.74683,-1.29845 4.125,-1.9375c0.7657,-0.35965 1.53141,-0.7193 2.32031,-1.08984c9.34343,-3.55736 24.20441,-3.67623 33.55469,0.02734c8.70704,4.08552 15.85939,9.56877 22,17c0,0.66 0,1.32 0,2c0.48469,-0.4357 0.96937,-0.87141 1.46875,-1.32031c7.69424,-6.83604 15.10148,-12.43399 24.53125,-16.67969c0.77988,-0.35578 1.55977,-0.71156 2.36328,-1.07812c5.71175,-1.997 11.58015,-2.08711 17.57422,-2.04688c0.69932,0.00193 1.39863,0.00387 2.11914,0.00586c4.73303,0.0397 9.27899,0.34174 13.94336,1.11914c0,0.66 0,1.32 0,2c1.25812,0.14438 2.51625,0.28875 3.8125,0.4375c2.61417,0.29999 4.6619,0.72063 7.1875,1.5625c0,0.66 0,1.32 0,2c1.17562,0.21656 1.17562,0.21656 2.375,0.4375c2.625,0.5625 2.625,0.5625 4.625,1.5625c0,0.66 0,1.32 0,2c0.74637,0.26168 1.49273,0.52336 2.26172,0.79297c9.59347,4.22879 16.08145,15.75599 19.90625,25.04297c0.68264,2.03191 1.271,4.09526 1.83203,6.16406c-2.36491,-13.54448 -10.05552,-25.00916 -21.33594,-32.94141c-1.6845,-1.11162 -1.6845,-1.11162 -3.66406,-2.05859c0,-0.66 0,-1.32 0,-2c-0.96937,-0.26813 -1.93875,-0.53625 -2.9375,-0.8125c-5.31778,-1.51783 -10.60868,-3.20883 -15.74609,-5.25781c-14.22188,-3.98682 -30.16886,-0.69996 -43.06641,5.75781c-5.76149,3.33019 -10.50594,7.68164 -15.25,12.3125c-3.24887,-1.08296 -3.82849,-1.72947 -5.875,-4.3125c-5.99868,-7.2043 -13.22081,-11.01624 -22.125,-13.6875c0,-0.66 0,-1.32 0,-2c1.41397,-0.50758 2.83132,-1.00575 4.25,-1.5c0.78891,-0.27844 1.57781,-0.55687 2.39062,-0.84375c2.35938,-0.65625 2.35938,-0.65625 6.35938,-0.65625c0.33,-0.99 0.66,-1.98 1,-3c3.71055,-2.0143 6.82852,-2.19402 11,-2c0,-0.66 0,-1.32 0,-2c9.29096,-1.51029 18.40064,-2.21321 27.8125,-2.25z"/>
  <path transform="translate(86 156)" fill="#FDFDFD" d="m200,99.74033c3.57271,3.12437 6.9738,6.33776 10,10c0,0.66 0,1.32 0,2c0.48469,-0.4357 0.96937,-0.87141 1.46875,-1.32031c7.69424,-6.83604 15.10148,-12.43399 24.53125,-16.67969c0.77988,-0.35578 1.55977,-0.71156 2.36328,-1.07813c5.71175,-1.99699 11.58015,-2.0871 17.57422,-2.04687c0.69932,0.00193 1.39863,0.00387 2.11914,0.00586c4.73303,0.0397 9.27899,0.34174 13.94336,1.11914c0,0.66 0,1.32 0,2c1.25813,0.14438 2.51625,0.28875 3.8125,0.4375c2.61417,0.29999 4.6619,0.72063 7.1875,1.5625c0,0.66 0,1.32 0,2c1.17562,0.21656 1.17562,0.21656 2.375,0.4375c2.625,0.5625 2.625,0.5625 4.625,1.5625c0,0.66 0,1.32 0,2c0.74637,0.26168 1.49273,0.52336 2.26172,0.79297c9.86044,4.34647 16.32552,16.14801 20.12891,25.69922c4.6572,14.72594 3.28051,30.00788 -3.26563,44.00781c-3.88766,6.88283 -9.01113,13.45764 -15.125,18.5c-0.66,0 -1.32,0 -2,0c0,0.66 0,1.32 0,2c-16.6532,8.8972 -32.33785,14.28035 -51.25,9.4375c-14.49027,-4.69821 -27.34188,-13.92209 -34.75,-27.4375c-0.6875,-2.80078 -0.6875,-2.80078 -1,-5c-0.66,0 -1.32,0 -2,0c0,-0.66 0,-1.32 0,-2c-1.67063,0.99 -1.67063,0.99 -3.375,2c-3.375,2 -3.375,2 -5.625,2c0,0.66 0,1.32 0,2c-0.65227,0.19336 -1.30453,0.38672 -1.97656,0.58594c-0.87399,0.26039 -1.74797,0.52078 -2.64844,0.78906c-0.85852,0.25523 -1.71703,0.51047 -2.60156,0.77344c-1.91029,0.58654 -3.80142,1.23809 -5.67188,1.9414c-3.50796,1.02942 -6.45136,1.14169 -10.10156,1.09766c-1.17563,-0.00645 -2.35125,-0.01289 -3.5625,-0.01953c-3.22455,-0.15756 -6.26929,-0.56427 -9.4375,-1.16797c0,-0.66 0,-1.32 0,-2c-1.45406,-0.09281 -1.45406,-0.09281 -2.9375,-0.1875c-4.94476,-0.66876 -8.87366,-3.23841 -13.0625,-5.8125c0,-0.66 0,-1.32 0,-2c-0.87592,-0.36158 -0.87592,-0.36158 -1.76953,-0.73047c-2.65899,-1.51343 -4.04819,-3.16876 -5.91797,-5.58203c-0.60199,-0.75926 -1.20398,-1.51852 -1.82422,-2.30078c-1.56944,-2.51687 -2.10075,-4.46734 -2.48828,-7.38672c-0.66,0 -1.32,0 -2,0c-3.66096,-10.83645 -4.02513,-25.14366 0.67578,-35.68359c4.06005,-7.10209 9.49662,-13.70036 16.32422,-18.31641c0.99,0 1.98,0 3,0c0,-0.66 0,-1.32 0,-2c1.37071,-0.65489 2.74683,-1.29845 4.125,-1.9375c0.7657,-0.35965 1.53141,-0.7193 2.32031,-1.08984c15.19026,-5.78345 32.74071,-2.07341 45.55469,7.02734z"/>
  <path transform="translate(206 119)" fill="#E7D808" d="m200,99.74033c0,0.66 0,1.32 0,2c1.03061,0.09088 1.03061,0.09088 2.08203,0.18359c1.35158,0.12569 1.35158,0.12569 2.73047,0.25391c0.89332,0.08121 1.78664,0.16242 2.70703,0.24609c2.48047,0.31641 2.48047,0.31641 5.48047,1.31641c0,0.66 0,1.32 0,2c1.1202,0.06445 2.24039,0.12891 3.39453,0.19531c5.38515,0.67596 9.60552,3.06774 14.29297,5.67969c0.82822,0.4473 1.65645,0.89461 2.50977,1.35547c2.27903,1.23714 4.54345,2.49674 6.80273,3.76953c0.95777,0.53754 1.91555,1.07508 2.90234,1.62891c6.36987,4.16354 13.60789,13.469 15.79688,20.67187c0.09926,0.56074 0.19851,1.12149 0.30078,1.69922c0.66,0 1.32,0 2,0c1.00732,1.9337 2.00563,3.8721 3,5.8125c0.83531,1.61842 0.83531,1.61842 1.6875,3.26953c1.3125,2.91797 1.3125,2.91797 1.3125,5.91797c0.66,0 1.32,0 2,0c0.33,1.98 0.66,3.96 1,6c0.66,0 1.32,0 2,0c0.73954,2.45034 1.47553,4.90155 2.20313,7.35547c0.60769,2.01673 1.2558,4.02132 1.92187,6.01953c1.24557,5.1602 1.54504,10.33698 1.875,15.625c0.66,0 1.32,0 2,0c0.74862,14.08127 1.25703,27.94061 0,42c-0.66,0 -1.32,0 -2,0c-0.02578,0.72703 -0.05156,1.45406 -0.07812,2.20313c-0.4431,7.85479 -2.20319,14.44932 -4.92188,21.79687c-0.56875,1.70626 -1.1319,3.41441 -1.6875,5.125c-0.67722,2.0657 -1.33958,3.92917 -2.3125,5.875c-0.66,0 -1.32,0 -2,0c-0.11215,0.71543 -0.2243,1.43086 -0.33984,2.16797c-0.70472,3.02319 -1.79304,5.39526 -3.22266,8.14453c-0.45504,0.88301 -0.91008,1.76602 -1.37891,2.67578c-0.34933,0.66387 -0.69867,1.32774 -1.05859,2.01172c-0.66,0 -1.32,0 -2,0c-0.26812,0.72188 -0.53625,1.44375 -0.8125,2.1875c-1.18651,2.81016 -2.46236,5.29667 -4.1875,7.8125c-0.66,0 -1.32,0 -2,0c-0.19723,0.67547 -0.39445,1.35094 -0.59766,2.04688c-1.93831,4.0818 -4.7411,6.95166 -7.83984,10.20312c-0.62745,0.66387 -1.2549,1.32773 -1.90137,2.01172c-8.05644,8.39605 -17.03354,15.22596 -26.66113,21.73828c-1.14275,0.80437 -1.14275,0.80437 -2.30859,1.625c-5.02294,3.48211 -10.05703,6.03879 -15.69141,8.375c-1.45941,0.66432 -2.91773,1.33101 -4.375,2c-7.78237,3.42907 -15.63369,6.11029 -23.875,8.1875c-0.66137,0.16693 -1.32274,0.33387 -2.00415,0.50586c-3.21934,0.78396 -6.38457,1.39634 -9.66773,1.85742c-2.94475,0.11665 -2.94475,0.11665 -4.07812,1.44922c-8.25135,1.27075 -16.67357,1.19302 -25,1.1875c-1.26715,-0.00081 -2.5343,-0.00161 -3.83984,-0.00244c-7.42432,-0.04805 -14.77449,-0.28578 -22.16016,-1.06006c-0.75152,-0.07839 -1.50305,-0.15678 -2.27734,-0.23755c-3.88709,-0.47186 -7.13079,-1.3754 -10.72266,-2.88745c-2.78539,-0.53337 -5.57174,-0.93882 -8.37891,-1.33984c-2.88961,-0.72779 -4.28983,-1.85561 -6.62109,-3.66016c-2.57033,-0.98689 -2.57033,-0.98689 -5.25,-1.6875c-0.89203,-0.25137 -1.78406,-0.50273 -2.70313,-0.76172c-0.67546,-0.18176 -1.35093,-0.36351 -2.04687,-0.55078c0,-0.66 0,-1.32 0,-2c-0.86625,-0.12375 -1.7325,-0.2475 -2.625,-0.375c-3.27014,-0.60558 -6.24757,-1.50806 -9.375,-2.625c0,-0.66 0,-1.32 0,-2c-1.33031,-0.34031 -1.33031,-0.34031 -2.6875,-0.6875c-3.91918,-1.55288 -5.50353,-3.16913 -8.3125,-6.3125c-0.60844,-0.65227 -1.21687,-1.30453 -1.84375,-1.97656c-13.06302,-14.2186 -13.06302,-14.2186 -14.15625,-22.02344c-0.66,0 -1.32,0 -2,0c-3.81346,-6.89668 -6.49233,-13.98495 -8.875,-21.46875c-0.86723,-2.72214 -1.78699,-5.40536 -2.75,-8.09375c-2.74732,-8.27337 -4.60827,-16.70666 -4.375,-25.4375c3.11985,3.46067 3.80867,6.73032 4.6875,11.25c0.37705,1.89492 0.37705,1.89492 0.76172,3.82813c0.18176,0.96421 0.36351,1.92843 0.55078,2.92187c0.66,0 1.32,0 2,0c0.495,2.475 0.495,2.475 1,5c0.66,0 1.32,0 2,0c0.99,3.465 0.99,3.465 2,7c0.66,0 1.32,0 2,0c1.05371,1.63324 2.03568,3.31244 3,5c3.9471,6.35246 3.9471,6.35246 8.875,11.9375c0.70125,0.68062 1.4025,1.36125 2.125,2.0625c0,0.66 0,1.32 0,2c0.83531,0.37125 0.83531,0.37125 1.6875,0.75c2.71182,1.46585 4.92776,3.30456 7.3125,5.25c0.66,0.33 1.32,0.66 2,1c0,0.66 0,1.32 0,2c0.55687,0.2475 1.11375,0.495 1.6875,0.75c2.3125,1.25 2.3125,1.25 4.6875,3.1875c2.75453,2.16427 5.4854,3.52473 8.625,5.0625c1.29937,0.92812 1.29937,0.92812 2.625,1.875c5.86864,3.69507 12.57254,6.64408 19.375,8.125c0,0.66 0,1.32 0,2c2.64,0.33 5.28,0.66 8,1c0,0.66 0,1.32 0,2c0.60328,-0.0116 1.20656,-0.0232 1.82812,-0.03516c0.79922,-0.00902 1.59844,-0.01804 2.42188,-0.02734c0.78891,-0.0116 1.57781,-0.0232 2.39062,-0.03516c2.35938,0.09766 2.35938,0.09766 4.26583,0.5927c3.49247,0.84238 7.06114,0.71027 10.63652,0.74324c1.26279,0.01211 1.26279,0.01211 2.5511,0.02446c1.78788,0.01383 3.57578,0.02456 5.36369,0.03243c1.79663,0.0114 3.59323,0.03168 5.38965,0.06152c15.79008,0.26188 29.22655,-2.20978 44.15259,-7.35669c0.99,0 1.98,0 3,0c0,-0.66 0,-1.32 0,-2c0.58008,-0.25395 1.16016,-0.50789 1.75781,-0.76953c3.5191,-1.5505 7.00262,-3.10834 10.42969,-4.85547c2.88174,-1.40885 5.75137,-2.42751 8.8125,-3.375c0,-0.66 0,-1.32 0,-2c1.57716,-1.25034 3.21501,-2.42442 4.875,-3.5625c6.59243,-4.67354 13.59874,-9.6481 18.125,-16.4375c0.66,0 1.32,0 2,0c0.20625,-0.68062 0.4125,-1.36125 0.625,-2.0625c1.24347,-2.6565 2.24766,-4.0206 4.1875,-6.125c3.70782,-4.11778 5.90858,-8.8009 8.1875,-13.8125c0.66,0 1.32,0 2,0c0.39187,-1.21687 0.78375,-2.43375 1.1875,-3.6875c2.05528,-6.1856 4.43927,-12.2434 6.8125,-18.3125c0.66,0 1.32,0 2,0c1.265,-11.92698 1.1136,-23.835 1.0625,-35.8125c-0.00503,-2.06055 -0.00959,-4.12109 -0.01367,-6.18164c-0.01092,-5.00198 -0.02812,-10.00391 -0.04883,-15.00586c-0.66,0 -1.32,0 -2,0c-0.25395,-1.19238 -0.50789,-2.38477 -0.76953,-3.61328c-0.34708,-1.56654 -0.69477,-3.13294 -1.04297,-4.69922c-0.24847,-1.17853 -0.24847,-1.17853 -0.50195,-2.38086c-0.2562,-1.13599 -0.2562,-1.13599 -0.51758,-2.29492c-0.15187,-0.6965 -0.30374,-1.39299 -0.46021,-2.1106c-0.83277,-2.2369 -1.98997,-3.27901 -3.70776,-4.90112c-0.73047,-2.26172 -0.73047,-2.26172 -1.1875,-4.6875c-0.15855,-0.80824 -0.31711,-1.61648 -0.48047,-2.44922c-0.10957,-0.61488 -0.21914,-1.22976 -0.33203,-1.86328c-0.66,0 -1.32,0 -2,0c-1.48846,-2.90927 -2.90415,-5.73042 -4,-8.8125c-0.33,-0.72187 -0.66,-1.44375 -1,-2.1875c-0.99,-0.33 -1.98,-0.66 -3,-1c-0.9401,-1.66664 -1.87575,-3.33605 -2.78174,-5.02148c-2.1905,-3.55748 -5.17755,-6.32877 -8.15576,-9.22852c-0.60779,-0.61102 -1.21559,-1.22203 -1.8418,-1.85156c-3.22782,-3.18952 -6.28581,-5.59873 -10.2207,-7.89844c0,-0.66 0,-1.32 0,-2c-0.72188,-0.26813 -1.44375,-0.53625 -2.1875,-0.8125c-2.81016,-1.18651 -5.29667,-2.46236 -7.8125,-4.1875c0,-0.66 0,-1.32 0,-2c-2.31,-0.66 -4.62,-1.32 -7,-2c0,-0.66 0,-1.32 0,-2c-2.64,-0.66 -5.28,-1.32 -8,-2c0,-0.66 0,-1.32 0,-2c-1.09313,-0.12375 -2.18625,-0.2475 -3.3125,-0.375c-3.6875,-0.625 -3.6875,-0.625 -6.6875,-2.625c-1.88155,-0.44112 -3.78063,-0.81093 -5.6875,-1.125c-1.4908,-0.25137 -1.4908,-0.25137 -3.01172,-0.50781c-0.75926,-0.12117 -1.51851,-0.24235 -2.30078,-0.36719c0,-0.66 0,-1.32 0,-2c-1.26457,-0.09088 -1.26457,-0.09088 -2.55469,-0.18359c-1.64355,-0.12569 -1.64355,-0.12569 -3.32031,-0.25391c-1.09055,-0.08121 -2.18109,-0.16242 -3.30469,-0.24609c-2.82031,-0.31641 -2.82031,-0.31641 -4.82031,-1.31641c-1.44652,-0.15067 -2.89879,-0.24861 -4.35156,-0.31641c-0.85078,-0.04189 -1.70156,-0.08379 -2.57813,-0.12695c-0.88945,-0.03932 -1.7789,-0.07863 -2.69531,-0.11914c-0.89719,-0.04318 -1.79438,-0.08637 -2.71875,-0.13086c-2.21859,-0.10621 -4.4373,-0.20825 -6.65625,-0.30664c0,-0.66 0,-1.32 0,-2c25.53888,-5.52903 51.53311,-3.9769 77,1z"/>
  <path fill="#F8A132" d="m504,111.74033c0,0.66 0,1.32 0,2c1.65,0.33 3.3,0.66 5,1c0,0.66 0,1.32 0,2c1.02094,0.03094 1.02094,0.03094 2.0625,0.0625c4.44129,1.41743 6.82735,4.57769 9.9375,7.9375c1.36125,1.33031 1.36125,1.33031 2.75,2.6875c5.25,5.39583 5.25,5.39583 5.25,8.3125c0.66,0 1.32,0 2,0c5.50915,10.82834 8.17615,19.27159 8.125,31.4375c0.00387,0.91588 0.00773,1.83176 0.01172,2.77539c-0.00723,5.03722 -0.27631,9.82268 -1.13672,14.78711c-0.66,0 -1.32,0 -2,0c-0.66,3.3 -1.32,6.6 -2,10c-0.66,0 -1.32,0 -2,0c-0.495,1.98 -0.495,1.98 -1,4c-0.66,0 -1.32,0 -2,0c-0.2359,0.72187 -0.4718,1.44375 -0.71484,2.1875c-3.68188,8.0576 -12.19527,14.49983 -20.28516,17.8125c-0.66,0 -1.32,0 -2,0c0,0.66 0,1.32 0,2c-3.465,0.99 -3.465,0.99 -7,2c0,0.66 0,1.32 0,2c-0.88301,0.4241 -1.76602,0.8482 -2.67578,1.28516c-6.8554,3.33552 -13.32965,6.88955 -19.71875,11.07031c-10.52709,6.64453 -10.52709,6.64453 -16.60547,6.64453c-2.30116,-1.61934 -2.91886,-2.56589 -3.43872,-5.34717c-0.57879,-2.73561 -1.42907,-4.52131 -2.85425,-6.91064c-0.69392,-1.17792 -0.69392,-1.17792 -1.40185,-2.37964c-0.73888,-1.23134 -0.73888,-1.23134 -1.49268,-2.48755c-1.00758,-1.7064 -2.0141,-3.41343 -3.01953,-5.12109c-0.48421,-0.81969 -0.96841,-1.63937 -1.46729,-2.48389c-2.10679,-3.60754 -4.07403,-7.2862 -6.04443,-10.96924c-1.6581,-2.9775 -3.49473,-5.8189 -5.39844,-8.64453c-0.88281,-1.65625 -0.88281,-1.65625 -0.88281,-4.65625c-0.66,0 -1.32,0 -2,0c-0.81833,-1.89333 -1.62942,-3.78978 -2.4375,-5.6875c-0.67869,-1.58361 -0.67869,-1.58361 -1.37109,-3.19922c-2.53956,-6.63615 -2.3747,-13.03121 -2.37891,-20.05078c-0.01225,-1.07186 -0.02449,-2.14371 -0.03711,-3.24805c-0.00996,-5.3597 0.11035,-9.8054 2.22461,-14.81445c0.54939,-1.78931 1.09161,-3.58085 1.625,-5.375c0.26039,-0.87398 0.52078,-1.74797 0.78906,-2.64844c0.19336,-0.65226 0.38672,-1.30453 0.58594,-1.97656c0.66,0 1.32,0 2,0c0.35191,-1.31484 0.35191,-1.31484 0.71094,-2.65625c3.61022,-9.36469 13.40725,-17.68862 22.46484,-21.77734c16.09425,-6.43406 31.28073,-5.2623 47.82422,-1.56641z"/>
  <path transform="translate(143.5 74.8125)" fill="#050503" d="m200,99.74033c0.82242,0.01354 1.64484,0.02707 2.49219,0.04102c2.00289,0.03493 4.00544,0.08872 6.00781,0.14648c0.91964,2.95418 1.12217,3.70815 -0.125,6.6875c-1.875,2.3125 -1.875,2.3125 -4.1875,3.4375c-4.17822,-0.19434 -5.76455,-2.20205 -8.6875,-5.125c0,-0.66 0,-1.32 0,-2c-1.77444,0.59349 -3.54446,1.20022 -5.3125,1.8125c-1.4792,0.50467 -1.4792,0.50467 -2.98828,1.01953c-2.60415,1.12683 -3.80749,2.13654 -5.69922,4.16797c-0.66,0 -1.32,0 -2,0c-0.66,2.31 -1.32,4.62 -2,7c-0.66,0 -1.32,0 -2,0c-0.66,8.91 -1.32,17.82 -2,27c4.95,-0.495 4.95,-0.495 10,-1c0,-0.66 0,-1.32 0,-2c11.31803,-1.93006 22.54097,-2.62133 34,-3c1.1318,-0.04254 2.26359,-0.08508 3.42969,-0.12891c14.11381,-0.27494 30.17537,0.57463 43.57031,5.12891c2.98848,0.72254 5.99049,1.37135 9,2c0,0.66 0,1.32 0,2c1.50434,0.14695 1.50434,0.14695 3.03906,0.29688c4.10881,0.5908 7.63452,2.13027 11.33594,3.95312c0.65049,0.31284 1.30099,0.62568 1.97119,0.948c14.1984,6.89117 14.1984,6.89117 15.65381,9.802c-5.82112,-0.65445 -10.49597,-3.84424 -15.49805,-6.67383c-4.79439,-2.63584 -9.13781,-4.21697 -14.50195,-5.32617c0,-0.66 0,-1.32 0,-2c-4.29,-0.66 -8.58,-1.32 -13,-2c0,-0.66 0,-1.32 0,-2c-0.78762,-0.04898 -1.57523,-0.09797 -2.38672,-0.14844c-1.08926,-0.07476 -2.17851,-0.14953 -3.30078,-0.22656c-1.58361,-0.10441 -1.58361,-0.10441 -3.19922,-0.21094c-3.39802,-0.28177 -6.71147,-0.85651 -10.07031,-1.4375c-6.9985,-1.10077 -13.91355,-1.28095 -20.98145,-1.2373c-2.05987,0.01073 -4.11886,0.00002 -6.17871,-0.0127c-7.48004,-0.0067 -14.65142,0.48426 -22.01562,1.84473c-2.99648,0.44804 -5.84199,0.4994 -8.86719,0.42871c0,0.66 0,1.32 0,2c1.25555,-0.0232 2.51109,-0.04641 3.80469,-0.07031c17.02301,-0.21927 17.02301,-0.21927 25.19531,2.07031c1.33292,0.33496 2.66614,0.66877 4,1c0,0.66 0,1.32 0,2c1.06928,0.05607 1.06928,0.05607 2.16016,0.11328c5.9713,0.40988 10.49083,1.21222 15.83984,3.88672c0.99,0.33 1.98,0.66 3,1c0,0.66 0,1.32 0,2c3.96,0.99 3.96,0.99 8,2c0,0.66 0,1.32 0,2c2.31,0.66 4.62,1.32 7,2c0,0.66 0,1.32 0,2c0.72187,0.26812 1.44375,0.53625 2.1875,0.8125c2.81016,1.18651 5.29667,2.46236 7.8125,4.1875c0,0.66 0,1.32 0,2c0.74492,0.25813 1.48983,0.51627 2.25732,0.78223c2.84141,1.26161 4.43547,2.52398 6.62549,4.70215c0.69223,0.68835 1.38446,1.37671 2.09766,2.08593c1.06154,1.07895 1.06154,1.07895 2.14453,2.17969c0.71543,0.70383 1.43086,1.40766 2.16797,2.13281c3.77979,3.80099 6.57602,7.11955 8.70703,12.11719c0.47437,0.47437 0.94875,0.94875 1.4375,1.4375c2.70193,2.70193 5.5625,6.69137 5.5625,10.5625c0.66,0 1.32,0 2,0c0.26555,0.69867 0.53109,1.39734 0.80469,2.11719c0.5298,1.36511 0.5298,1.36511 1.07031,2.75781c0.52207,1.35738 0.52207,1.35738 1.05469,2.74219c0.95562,2.50498 0.95562,2.50498 3.07031,4.38281c1.97028,5.53125 3.47891,11.0934 3,17c0.66,0 1.32,0 2,0c0.84249,5.12889 1.16007,10.11984 1.16797,15.32031c0.00333,0.78052 0.00666,1.56104 0.01008,2.36521c0.00504,1.64551 0.00741,3.29103 0.00725,4.93655c0.00218,2.47511 0.02033,4.94977 0.03931,7.42481c0.03151,9.19896 -0.4351,17.89909 -2.22461,26.95312c-0.66,0 -1.32,0 -2,0c-0.17016,0.68965 -0.34031,1.3793 -0.51562,2.08984c-1.81561,7.04032 -4.23833,13.41806 -7.48438,19.91016c-0.66,0 -1.32,0 -2,0c-0.08637,0.71285 -0.17273,1.4257 -0.26172,2.16016c-0.89426,3.43982 -2.39696,5.4602 -4.55078,8.27734c-3.31609,4.37968 -3.31609,4.37968 -6.375,8.9375c-2.00511,2.90395 -4.25603,5.19963 -6.8125,7.625c-0.55688,0.59813 -1.11375,1.19625 -1.6875,1.8125c-1.3125,1.1875 -1.3125,1.1875 -3.3125,1.1875c-0.33,0.99 -0.66,1.98 -1,3c-1.94901,1.66197 -3.87352,3.18447 -5.9375,4.6875c-0.55107,0.41572 -1.10215,0.83145 -1.66992,1.25977c-4.12545,3.05273 -4.12545,3.05273 -6.39258,3.05273c0,0.66 0,1.32 0,2c-0.86238,0.42926 -1.72477,0.85852 -2.61328,1.30078c-2.17043,1.08897 -4.33511,2.18952 -6.49219,3.30469c-1.01707,0.52207 -2.03414,1.04414 -3.08203,1.58203c-1.0248,0.5298 -2.04961,1.05961 -3.10547,1.60547c-2.70703,1.20703 -2.70703,1.20703 -5.70703,1.20703c0,0.66 0,1.32 0,2c-0.66387,0.19336 -1.32773,0.38672 -2.01172,0.58594c-1.32451,0.39058 -1.32451,0.39058 -2.67578,0.78906c-1.30518,0.38285 -1.30518,0.38285 -2.63672,0.77344c-2.63744,0.79697 -2.63744,0.79697 -4.96435,1.80444c-11.1191,4.29406 -22.40492,4.49608 -34.14331,4.3833c-2.63044,-0.02368 -5.25987,-0.02052 -7.89039,-0.01391c-9.42231,-0.01695 -18.40931,-0.47746 -27.67773,-2.32227c0,-0.66 0,-1.32 0,-2c-2.64,-0.33 -5.28,-0.66 -8,-1c0,-0.66 0,-1.32 0,-2c-0.96937,-0.0825 -1.93875,-0.165 -2.9375,-0.25c-7.55052,-1.10903 -13.75903,-5.02608 -19.92969,-9.30469c-1.92009,-1.30116 -3.85186,-2.45373 -5.88281,-3.57031c-3.03257,-1.74956 -5.66072,-3.52111 -8.25,-5.875c0,-0.66 0,-1.32 0,-2c-1.05187,-0.34031 -1.05187,-0.34031 -2.125,-0.6875c-5.56837,-2.54208 -8.91412,-6.06367 -11.875,-11.3125c-1.32772,-1.33892 -2.66181,-2.67154 -4,-4c-1.2773,-1.49798 -2.52788,-3.01918 -3.75,-4.5625c-0.61359,-0.76441 -1.22719,-1.52883 -1.85938,-2.31641c-1.39062,-2.12109 -1.39062,-2.12109 -1.39062,-5.12109c-0.66,0 -1.32,0 -2,0c-1.46063,-2.64739 -2,-3.89448 -2,-7c-0.66,0 -1.32,0 -2,0c-0.33,-1.65 -0.66,-3.3 -1,-5c-0.66,0 -1.32,0 -2,0c-0.6997,-2.24624 -1.38435,-4.49716 -2.0625,-6.75c-0.38285,-1.25297 -0.7657,-2.50594 -1.16016,-3.79687c-0.70391,-3.12693 -0.94388,-4.54779 0.22266,-7.45313c6,9.71429 6,9.71429 6,14c0.66,0 1.32,0 2,0c0.99,3.465 0.99,3.465 2,7c0.66,0 1.32,0 2,0c0.43313,0.95906 0.43313,0.95906 0.875,1.9375c0.95323,2.21456 0.95323,2.21456 3.125,3.0625c0.28875,0.96938 0.5775,1.93875 0.875,2.9375c1.3568,3.69352 1.80987,3.41661 5.125,5.0625c1.58374,1.51984 3.12137,3.08836 4.625,4.6875c5.74053,5.86791 11.93412,10.77893 19.375,14.3125c0,0.66 0,1.32 0,2c0.76313,0.14437 1.52625,0.28875 2.3125,0.4375c2.6875,0.5625 2.6875,0.5625 5.6875,1.5625c0,0.66 0,1.32 0,2c0.66,0.10313 1.32,0.20625 2,0.3125c3.17217,0.72696 6.03599,1.81322 9.0625,2.98828c2.28037,0.82296 4.54415,1.32526 6.9375,1.69922c0,0.66 0,1.32 0,2c3.3,0.33 6.6,0.66 10,1c0,0.66 0,1.32 0,2c5.50939,0.10055 11.01822,0.17224 16.52832,0.21973c1.86566,0.01984 3.73125,0.04692 5.59668,0.08203c15.95578,0.29229 31.03135,-0.86152 45.53906,-8.1377c2.2451,-1.11879 4.47577,-2.00803 6.83594,-2.85156c3.5443,-1.17792 3.5443,-1.17792 6.5,-3.3125c0.99,0 1.98,0 3,0c0,-0.66 0,-1.32 0,-2c1.67969,-1.28906 1.67969,-1.28906 3.875,-2.625c0.7193,-0.44602 1.43859,-0.89203 2.17969,-1.35156c1.94531,-1.02344 1.94531,-1.02344 3.94531,-1.02344c0,-0.66 0,-1.32 0,-2c1.41174,-0.94682 2.82747,-1.88821 4.26221,-2.7998c3.04381,-2.1022 5.57955,-4.70323 8.17529,-7.3252c0.56912,-0.57331 1.13824,-1.14662 1.72461,-1.7373c7.0276,-7.21635 12.17414,-15.24003 16.83789,-24.1377c0.66,0 1.32,0 2,0c0.12117,-0.60328 0.24234,-1.20656 0.36719,-1.82812c0.25136,-1.19883 0.25136,-1.19883 0.50781,-2.42188c0.24363,-1.18336 0.24363,-1.18336 0.49219,-2.39062c0.63281,-2.35938 0.63281,-2.35938 1.63281,-4.20313c1.42048,-3.0629 1.69228,-6.0681 2.125,-9.40625c0.25137,-1.89492 0.25137,-1.89492 0.50781,-3.82812c0.12117,-0.96422 0.24235,-1.92844 0.36719,-2.92188c0.66,0 1.32,0 2,0c0.97434,-23.89386 -1.95636,-43.8217 -13.82812,-64.71484c-1.17188,-2.28516 -1.17188,-2.28516 -1.17188,-4.28516c-0.99,-0.33 -1.98,-0.66 -3,-1c-1.03704,-1.64388 -2.03155,-3.3148 -3,-5c-5.59633,-6.84358 -11.63083,-13.08722 -19,-18c0,-0.66 0,-1.32 0,-2c-0.72187,-0.26812 -1.44375,-0.53625 -2.1875,-0.8125c-2.81016,-1.18651 -5.29667,-2.46236 -7.8125,-4.1875c0,-0.66 0,-1.32 0,-2c-0.94875,-0.22688 -1.8975,-0.45375 -2.875,-0.6875c-3.25279,-0.91341 -6.07232,-2.24578 -9.0625,-3.8125c-4.32793,-2.24681 -8.29326,-3.52849 -13.0625,-4.5c0,-0.66 0,-1.32 0,-2c-1.21623,-0.18176 -1.21623,-0.18176 -2.45703,-0.36719c-1.10731,-0.16758 -2.21461,-0.33515 -3.35547,-0.50781c-1.07895,-0.16242 -2.15789,-0.32484 -3.26953,-0.49219c-2.14858,-0.34703 -4.29561,-0.70953 -6.42847,-1.14282c-6.63658,-1.32897 -12.91709,-1.77008 -19.677,-1.67749c-1.48415,0.00967 -1.48415,0.00967 -2.99829,0.01953c-8.29564,0.08592 -16.54586,0.49594 -24.81421,1.16797c0,0.66 0,1.32 0,2c-0.54527,0.10957 -1.09055,0.21914 -1.65234,0.33203c-4.96872,1.04471 -9.65154,2.38324 -14.40235,4.17969c-1.94531,0.48828 -1.94531,0.48828 -4.94531,-0.51172c5.30625,-5.60947 11.26368,-8.74135 18.0625,-12.1875c0.70705,-0.36803 1.4141,-0.73605 2.14258,-1.11523c0.68642,-0.34741 1.37285,-0.69481 2.08008,-1.05274c0.92631,-0.47409 0.92631,-0.47409 1.87133,-0.95776c1.84351,-0.68677 1.84351,-0.68677 5.84351,-0.68677c0,-0.66 0,-1.32 0,-2c2.64,-0.66 5.28,-1.32 8,-2c0.03738,-1.32773 0.07477,-2.65547 0.11328,-4.02344c0.63494,-18.20501 0.63494,-18.20501 3.88672,-25.97656c0.66,0 1.32,0 2,0c0.04125,-0.88687 0.0825,-1.77375 0.125,-2.6875c1.19996,-4.54269 3.16569,-5.53052 6.875,-8.3125c0.33,-0.66 0.66,-1.32 1,-2c6.02454,-2.80195 10.91747,-3.39655 17.5,-3.1875z"/>
  <path transform="translate(346 54)" fill="#8DC247" d="m200,99.74033c12.06461,1.34051 24.69232,6.50777 32.75,16.125c0.7425,0.94875 1.485,1.8975 2.25,2.875c0.51563,0.495 1.03125,0.99 1.5625,1.5c2.50791,2.61695 5.4375,5.76847 5.4375,9.5c0.66,0 1.32,0 2,0c0.19336,0.65227 0.38672,1.30453 0.58594,1.97656c0.39058,1.31098 0.39058,1.31098 0.78906,2.64844c0.25523,0.85852 0.51047,1.71703 0.77344,2.60156c0.80765,2.78258 0.80765,2.78258 1.9414,5.42188c1.30315,4.79871 1.16,9.40374 1.09766,14.35156c-0.00097,1.45793 -0.00097,1.45793 -0.00195,2.94531c-0.02937,4.79017 -0.19147,9.34673 -1.18555,14.05469c-0.66,0 -1.32,0 -2,0c-0.09281,1.42312 -0.09281,1.42312 -0.1875,2.875c-0.70422,5.19627 -3.33299,9.57771 -5.8125,14.125c-0.66,0 -1.32,0 -2,0c-0.26812,0.5775 -0.53625,1.155 -0.8125,1.75c-1.21679,2.3055 -2.49084,4.27056 -4.1875,6.25c-0.66,0 -1.32,0 -2,0c0,0.66 0,1.32 0,2c-2.41406,1.91016 -2.41406,1.91016 -5.625,4.0625c-1.04414,0.71285 -2.08828,1.4257 -3.16406,2.16016c-3.20429,1.77366 -5.59445,2.42438 -9.21094,2.77734c0,0.66 0,1.32 0,2c-6.57925,1.97143 -12.59116,2.30352 -19.4375,2.25c-1.47823,0.0116 -1.47823,0.0116 -2.98633,0.02344c-7.83468,-0.02077 -14.89445,-1.15495 -22.26367,-3.83594c-3.41847,-1.18747 -6.71016,-1.97566 -10.3125,-2.4375c0,-0.66 0,-1.32 0,-2c-0.59168,-0.06059 -1.18336,-0.12117 -1.79297,-0.18359c-4.11681,-0.43653 -8.16248,-0.90312 -12.20703,-1.81641c0,-0.66 0,-1.32 0,-2c-0.92813,0.04125 -1.85625,0.0825 -2.8125,0.125c-3.1875,-0.125 -3.1875,-0.125 -6.1875,-2.125c-2.32388,-0.39388 -4.65794,-0.73486 -7,-1c-0.495,0.99 -0.495,0.99 -1,2c-1.7075,-1.28062 -3.37374,-2.61768 -5,-4c0,-0.66 0,-1.32 0,-2c0.88688,-0.35062 1.77375,-0.70125 2.6875,-1.0625c4.87836,-2.08077 9.48088,-4.67433 14.12891,-7.21875c8.74041,-4.71875 8.74041,-4.71875 11.18359,-4.71875c0,-0.66 0,-1.32 0,-2c3.465,-0.99 3.465,-0.99 7,-2c0,-0.66 0,-1.32 0,-2c1.89455,-0.96087 3.7907,-1.91859 5.6875,-2.875c1.05574,-0.53367 2.11148,-1.06734 3.19922,-1.61719c2.67324,-1.29469 5.34039,-2.44804 8.11328,-3.50781c0,-0.66 0,-1.32 0,-2c1.46875,-1.15625 1.46875,-1.15625 3.5,-2.5c7.61174,-5.53335 12.71309,-12.97946 16.5,-21.5c0.66,0 1.32,0 2,0c0.66,-3.63 1.32,-7.26 2,-11c0.66,0 1.32,0 2,0c0,-10.23 0,-20.46 0,-31z"/>
  <path fill="#DCCC0B" d="m496,284.74033c4.29673,3.59363 6.20945,8.01763 8.5,13c0.59591,1.28584 0.59591,1.28584 1.20386,2.59766c2.90491,6.36023 5.48057,12.63827 7.29614,19.40234c0.55494,1.84271 0.55494,1.84271 1.12109,3.72266c6.47213,23.66958 4.38743,50.91246 -2.12109,74.27734c-0.66,0 -1.32,0 -2,0c-0.0825,0.78375 -0.165,1.5675 -0.25,2.375c-2.03335,9.82786 -7.20274,18.76039 -11.75,27.625c-0.66,0 -1.32,0 -2,0c-0.22301,0.85852 -0.44602,1.71703 -0.67578,2.60156c-1.53047,3.92775 -3.74516,6.67433 -6.51172,9.77344c-0.4954,0.56799 -0.99081,1.13599 -1.50122,1.72119c-0.98559,1.12863 -1.97467,2.25422 -2.96753,3.37647c-1.1315,1.28609 -2.24035,2.59206 -3.34375,3.90234c-9.7337,11.53623 -9.7337,11.53623 -16,13.625c0,0.66 0,1.32 0,2c-13.05473,10.5346 -28.05195,18.9433 -44,24c-1.87797,0.70043 -3.75316,1.40835 -5.625,2.125c-7.90684,2.86886 -15.89414,5.45324 -24.375,4.875c0,0.66 0,1.32 0,2c-11.62493,1.39999 -23.3131,1.19464 -35,1c-0.78053,-0.01257 -1.56105,-0.02514 -2.36523,-0.03809c-8.66963,-0.19292 -16.50309,-1.42023 -24.82227,-3.85253c-5.34076,-1.55408 -10.74462,-2.80062 -16.15625,-4.08204c-3.76953,-1.05917 -7.09923,-2.40926 -10.65625,-4.02734c3.77893,-1.41955 5.93762,-0.49269 9.62891,0.90625c8.46783,2.74032 16.50347,2.70696 25.30859,2.59375c0.81044,-0.00421 1.62088,-0.00842 2.45587,-0.01276c14.54296,-0.08854 28.38462,-1.5396 42.3996,-5.58099c3.77255,-1.06606 7.31693,-1.49677 11.20703,-1.90625c0,-0.66 0,-1.32 0,-2c4.95,-0.99 4.95,-0.99 10,-2c0,-0.66 0,-1.32 0,-2c4.455,-0.99 4.455,-0.99 9,-2c0,-0.66 0,-1.32 0,-2c0.75023,-0.35191 1.50047,-0.70383 2.27344,-1.06641c7.09368,-3.42176 13.39958,-7.26533 19.72656,-11.93359c0.8727,-0.60586 1.74539,-1.21172 2.64453,-1.83594c11.92761,-8.36127 24.20593,-18.93975 32.35547,-31.16406c0.66,0 1.32,0 2,0c0.25781,-0.71543 0.51562,-1.43086 0.78125,-2.16797c1.2926,-3.00363 2.84652,-5.46708 4.71875,-8.14453c0.60844,-0.88301 1.21688,-1.76602 1.84375,-2.67578c0.54656,-0.66387 1.09313,-1.32774 1.65625,-2.01172c0.66,0 1.32,0 2,0c0.11215,-0.71543 0.2243,-1.43086 0.33984,-2.16797c0.70472,-3.02319 1.79304,-5.39526 3.22266,-8.14453c0.45504,-0.88301 0.91008,-1.76602 1.37891,-2.67578c0.34933,-0.66387 0.69867,-1.32774 1.05859,-2.01172c0.66,0 1.32,0 2,0c0.15469,-1.51594 0.15469,-1.51594 0.3125,-3.0625c0.7119,-4.07726 1.94926,-7.19359 3.6875,-10.9375c1.79662,-4.00784 3.34026,-7.64569 4,-12c0.66,0 1.32,0 2,0c0.12117,-0.99 0.24234,-1.98 0.36719,-3c0.16902,-1.33337 0.3383,-2.6667 0.50781,-4c0.24363,-1.94906 0.24363,-1.94906 0.49219,-3.9375c0.37424,-2.70849 0.91536,-5.07238 1.66015,-7.73437c1.50313,-5.75964 1.48027,-11.65809 1.66016,-17.57813c0.04705,-1.15113 0.0941,-2.30227 0.14258,-3.48828c0.25786,-7.49925 -0.02981,-14.80157 -0.83008,-22.26172c-0.66,0 -1.32,0 -2,0c-0.09797,-0.75023 -0.19594,-1.50047 -0.29687,-2.27344c-0.92692,-6.34457 -2.29734,-11.89891 -4.89844,-17.76562c-0.80469,-1.96094 -0.80469,-1.96094 -0.80469,-3.96094z"/>
  <path transform="translate(348 123.563)" fill="#46A84C" d="m200,99.74033c1.11109,-0.01007 2.22218,-0.02014 3.36694,-0.03052c1.05454,0.01136 2.10907,0.02272 3.19556,0.03443c0.95004,0.00974 1.90008,0.01949 2.87891,0.02954c2.98093,0.47075 4.28057,1.48199 6.55859,3.40405c1.76995,0.70317 3.56445,1.34666 5.375,1.9375c6.98316,2.44828 12.07069,6.30166 17.625,11.0625c-0.495,2.475 -0.495,2.475 -1,5c-0.66,0 -1.32,0 -2,0c-0.26812,0.5775 -0.53625,1.155 -0.8125,1.75c-1.21679,2.3055 -2.49084,4.27056 -4.1875,6.25c-0.66,0 -1.32,0 -2,0c0,0.66 0,1.32 0,2c-2.41406,1.91016 -2.41406,1.91016 -5.625,4.0625c-1.04414,0.71285 -2.08828,1.4257 -3.16406,2.16016c-3.20429,1.77366 -5.59445,2.42438 -9.21094,2.77734c0,0.66 0,1.32 0,2c-6.57925,1.97143 -12.59116,2.30352 -19.4375,2.25c-1.47823,0.0116 -1.47823,0.0116 -2.98633,0.02344c-7.83468,-0.02077 -14.89445,-1.15495 -22.26367,-3.83594c-3.41847,-1.18747 -6.71016,-1.97566 -10.3125,-2.4375c0,-0.66 0,-1.32 0,-2c-0.59168,-0.06059 -1.18336,-0.12117 -1.79297,-0.18359c-4.11681,-0.43653 -8.16248,-0.90312 -12.20703,-1.81641c0,-0.66 0,-1.32 0,-2c-0.92813,0.04125 -1.85625,0.0825 -2.8125,0.125c-3.1875,-0.125 -3.1875,-0.125 -6.1875,-2.125c0,-0.66 0,-1.32 0,-2c0.48727,-0.26813 0.97453,-0.53625 1.47656,-0.8125c5.43471,-3.00391 10.82875,-6.07564 16.21387,-9.16724c4.58372,-2.62395 9.21516,-5.14996 13.86816,-7.64917c2.20902,-1.24058 4.28116,-2.57892 6.37891,-3.99609c9.54975,-5.85491 18.02254,-6.74566 29.0625,-6.8125z"/>
  <path transform="translate(337 51)" fill="#FEDE4F" d="m200,99.74033c0.33,0 0.66,0 1,0c1.15265,5.49795 1.1485,10.84925 1.125,16.4375c0.00387,0.91588 0.00773,1.83176 0.01172,2.77539c-0.00723,5.03722 -0.27631,9.82268 -1.13672,14.78711c-0.66,0 -1.32,0 -2,0c-0.66,3.3 -1.32,6.6 -2,10c-0.66,0 -1.32,0 -2,0c-0.33,1.32 -0.66,2.64 -1,4c-0.66,0 -1.32,0 -2,0c-0.2359,0.72187 -0.4718,1.44375 -0.71484,2.1875c-3.68188,8.0576 -12.19527,14.49983 -20.28516,17.8125c-0.66,0 -1.32,0 -2,0c0,0.66 0,1.32 0,2c-3.465,0.99 -3.465,0.99 -7,2c0,0.66 0,1.32 0,2c-1.32451,0.63615 -1.32451,0.63615 -2.67578,1.28516c-7.01954,3.41695 -13.65026,7.01821 -20.11719,11.42968c-2.20703,1.28516 -2.20703,1.28516 -5.20703,1.28516c1.01762,-5.4778 2.12159,-10.74044 4,-16c0.34977,-1.32912 0.69096,-2.66083 1,-4c0.66,0 1.32,0 2,0c0.06059,-0.65227 0.12117,-1.30453 0.18359,-1.97656c0.45161,-4.7106 0.95836,-9.36546 1.81641,-14.02344c0.66,0 1.32,0 2,0c0.06059,-0.75926 0.12117,-1.51852 0.18359,-2.30078c0.08379,-0.99387 0.16758,-1.98774 0.25391,-3.01172c0.08121,-0.98613 0.16242,-1.97227 0.24609,-2.98828c0.31641,-2.69922 0.31641,-2.69922 1.31641,-5.69922c0.66,0 1.32,0 2,0c0.04125,-0.80438 0.0825,-1.60875 0.125,-2.4375c2.34035,-9.52856 10.47112,-17.47925 17.875,-23.5625c3.34375,-1.31641 3.34375,-1.31641 6,-2c0,-0.66 0,-1.32 0,-2c0.67547,-0.19336 1.35094,-0.38672 2.04687,-0.58594c0.89204,-0.26039 1.78407,-0.52078 2.70313,-0.78906c0.88172,-0.25523 1.76344,-0.51047 2.67187,-0.77344c2.53344,-0.74124 2.53344,-0.74124 4.48438,-1.94531c2.98869,-1.29361 5.60741,-1.09598 8.84375,-1.03125c1.17047,0.01805 2.34094,0.03609 3.54687,0.05469c1.33805,0.0348 1.33805,0.0348 2.70313,0.07031c0,-0.99 0,-1.98 0,-3z"/>
  <path transform="translate(75 138)" fill="#43412F" d="m200,99.74033c0.99,0.495 0.99,0.495 2,1c-0.66,0.66 -1.32,1.32 -2,2c2.64,-0.33 5.28,-0.66 8,-1c0,0.66 0,1.32 0,2c-4.29,0.99 -8.58,1.98 -13,3c0,0.66 0,1.32 0,2c1.7325,0.34031 1.7325,0.34031 3.5,0.6875c8.64845,2.20391 15.27202,8.13903 21.5,14.3125c0.495,0.99 0.495,0.99 1,2c3.01606,-1.34998 5.03493,-2.8739 7.375,-5.1875c13.27192,-11.83846 29.98368,-14.94603 47.21143,-14.03271c8.72882,0.79641 16.81405,3.96448 24.41357,8.22021c0,0.66 0,1.32 0,2c1.10215,0.38672 1.10215,0.38672 2.22656,0.78125c10.6441,4.67741 17.66546,15.88603 22.04688,26.21094c1.61126,4.45262 1.818,8.25293 1.72656,13.00781c-0.33,0 -0.66,0 -1,0c-0.32871,-1.34191 -0.32871,-1.34191 -0.66406,-2.71094c-3.33023,-12.69819 -9.32765,-25.90436 -21.11328,-32.94922c-0.73348,-0.44214 -1.46696,-0.88429 -2.22266,-1.33984c0,-0.66 0,-1.32 0,-2c-2.31,-0.66 -4.62,-1.32 -7,-2c0,-0.66 0,-1.32 0,-2c-3.63,-0.66 -7.26,-1.32 -11,-2c0,-0.66 0,-1.32 0,-2c-3.81243,-0.05873 -7.62475,-0.09384 -11.4375,-0.125c-1.60392,-0.02514 -1.60392,-0.02514 -3.24023,-0.05078c-14.57346,-0.08914 -28.73667,4.23518 -39.66211,14.33984c-1.37812,1.41052 -2.73611,2.84118 -4.06641,4.29688c-1.59375,1.53906 -1.59375,1.53906 -3.59375,1.53906c-1.51562,-1.57422 -1.51562,-1.57422 -3.25,-3.6875c-7.23755,-8.42161 -16.39921,-15.07346 -27.75,-16.3125c-2.61772,-0.11664 -5.19587,-0.19061 -7.8125,-0.1875c-0.7056,0.00081 -1.4112,0.00161 -2.13818,0.00244c-7.56087,0.08867 -13.96988,1.64372 -21.04932,4.18506c0,0.66 0,1.32 0,2c-1.45406,0.68062 -1.45406,0.68062 -2.9375,1.375c-8.89333,5.11547 -14.78956,13.76137 -17.59521,23.46802c-0.49586,2.28888 -0.59668,4.33612 -0.6001,6.67651c-0.00129,0.85787 -0.00258,1.71574 -0.00391,2.59961c0.00387,0.88881 0.00774,1.77762 0.01172,2.69336c-0.00387,0.87721 -0.00773,1.75441 -0.01172,2.6582c0.00741,4.95053 0.29789,9.64943 1.13672,14.5293c0.66,0 1.32,0 2,0c0.53625,1.17562 1.0725,2.35125 1.625,3.5625c2.35734,4.73152 5.51407,10.00704 10.375,12.4375c0,0.66 0,1.32 0,2c0.86625,0.26812 1.7325,0.53625 2.625,0.8125c3.29465,1.15923 6.25592,2.62796 9.375,4.1875c2.23525,0.68637 2.23525,0.68637 4,1c0,0.66 0,1.32 0,2c14.315,0.74274 14.315,0.74274 28.125,-2.34375c1.875,-0.65625 1.875,-0.65625 5.875,-0.65625c0,0.66 0,1.32 0,2c-3.465,0.495 -3.465,0.495 -7,1c0,0.66 0,1.32 0,2c-14.57898,2.73356 -29.43182,1.37879 -42,-7c0,-0.66 0,-1.32 0,-2c-0.88945,-0.13729 -0.88945,-0.13729 -1.79688,-0.27734c-2.72847,-0.89498 -3.67437,-2.06172 -5.45312,-4.28516c-0.52078,-0.64066 -1.04156,-1.28133 -1.57813,-1.94141c-0.38671,-0.49371 -0.77343,-0.98742 -1.17187,-1.49609c-6.48613,15.0309 -6.05685,32.05942 -4,48c0.66,0 1.32,0 2,0c0.495,2.475 0.495,2.475 1,5c-1.32,-0.33 -2.64,-0.66 -4,-1c0.55475,11.53878 3.46236,23.38442 8,34c0.85469,2.04145 1.70881,4.08313 2.5625,6.125c0.62068,1.45793 0.62068,1.45793 1.25391,2.94531c1.18909,2.9433 2.21096,5.90872 3.18359,8.92969c0.66,0 1.32,0 2,0c0.41766,0.88043 0.83531,1.76086 1.26562,2.66797c4.85319,9.3238 12.12882,19.02338 19.73438,26.33203c-3,0 -3,0 -5.48047,-2.33594c-0.91091,-1.00532 -1.81296,-2.01873 -2.70703,-3.03906c-0.46342,-0.50789 -0.92684,-1.01578 -1.4043,-1.53906c-3.4082,-3.81478 -3.4082,-3.81478 -3.4082,-6.08594c-0.66,0 -1.32,0 -2,0c-1.57078,-2.36959 -3.02119,-4.72783 -4.4375,-7.1875c-0.3951,-0.67354 -0.7902,-1.34707 -1.19727,-2.04102c-0.77269,-1.31782 -1.54152,-2.63792 -2.30615,-3.96044c-0.92071,-1.57443 -1.87929,-3.12661 -2.84424,-4.67432c-1.21484,-2.13672 -1.21484,-2.13672 -1.21484,-4.13672c-0.66,0 -1.32,0 -2,0c-6.79305,-18.9502 -6.79305,-18.9502 -9,-27c-0.1882,-0.65871 -0.37641,-1.31742 -0.57031,-1.99609c-0.71575,-3.33798 -0.48644,-6.59872 -0.42969,-10.00391c-0.66,0 -1.32,0 -2,0c-2.0631,-29.76757 -2.0631,-29.76757 0,-41c0.495,-0.495 0.495,-0.495 1,-1c0.29431,-1.3363 0.53662,-2.68419 0.75391,-4.03516c0.19819,-1.21333 0.19819,-1.21333 0.40039,-2.45117c0.1347,-0.85013 0.26941,-1.70027 0.4082,-2.57617c0.13857,-0.854 0.27715,-1.70801 0.41992,-2.58789c0.34281,-2.11595 0.68066,-4.23271 1.01758,-6.34961c0.66,0 1.32,0 2,0c-0.63229,-1.33805 -0.63229,-1.33805 -1.27734,-2.70312c-0.54786,-1.17047 -1.09571,-2.34094 -1.66016,-3.54688c-0.54527,-1.16016 -1.09055,-2.32031 -1.65234,-3.51562c-4.6662,-10.70254 -4.10928,-25.29999 0.08984,-36.04688c0.79679,-1.74631 1.61513,-3.48413 2.5,-5.1875c0.66,0 1.32,0 2,0c0.66,-1.65 1.32,-3.3 2,-5c0.66,0 1.32,0 2,0c0.39832,-0.89719 0.39832,-0.89719 0.80469,-1.8125c3.3342,-6.1018 9.98007,-9.58454 16.19531,-12.1875c1.78084,-0.78891 1.78084,-0.78891 3.59766,-1.59375c5.73349,-2.13254 11.58546,-1.77823 17.625,-1.66992c6.94159,-0.09599 10.71641,-2.01453 15.77734,-6.73633z"/>
  <path transform="translate(287 169)" fill="#4A4730" d="m200,99.74033c4.49317,4.09671 7.97814,8.71434 11,14c0,0.66 0,1.32 0,2c0.66,0 1.32,0 2,0c13,23.03226 13,23.03226 13,33c0.66,0 1.32,0 2,0c0.30744,1.91426 0.30744,1.91426 0.62109,3.86719c0.27197,1.6693 0.54411,3.33857 0.81641,5.00781c0.13471,0.84176 0.26941,1.68352 0.4082,2.55078c0.13213,0.80567 0.26426,1.61133 0.40039,2.44141c0.18067,1.11544 0.18067,1.11544 0.36499,2.25342c0.32139,1.95824 0.32139,1.95824 1.38892,3.87939c0.08698,2.91699 0.11552,5.80983 0.09766,8.72656c-0.00213,1.29423 -0.00213,1.29423 -0.00429,2.6146c-0.00561,2.76131 -0.01816,5.52255 -0.03087,8.28384c-0.00501,1.86979 -0.00958,3.73958 -0.01367,5.60938c-0.01104,4.58857 -0.02831,9.17708 -0.04883,13.76562c-0.66,0 -1.32,0 -2,0c0.04125,1.11375 0.0825,2.2275 0.125,3.375c0.01801,5.02401 -1.00542,9.74682 -2.125,14.625c-0.66,0 -1.32,0 -2,0c-0.06188,1.09313 -0.12375,2.18625 -0.1875,3.3125c-0.74483,5.76743 -3.26078,10.52059 -5.8125,15.6875c-0.58778,1.26738 -1.17361,2.53566 -1.75781,3.80469c-9.16015,19.53691 -25.61434,40.85662 -44.24219,52.19531c-0.66,0 -1.32,0 -2,0c0,0.66 0,1.32 0,2c-2.18078,1.49967 -4.34264,2.85779 -6.625,4.1875c-0.67063,0.39566 -1.34127,0.79132 -2.03223,1.19897c-18.21167,10.61353 -18.21167,10.61353 -23.34277,10.61353c0,0.66 0,1.32 0,2c-6.36458,1.98541 -12.74951,3.72051 -19.23828,5.25391c-2.73806,0.6691 -2.73806,0.6691 -5.125,1.76562c-12.06485,4.48634 -27.08601,3.20555 -39.80231,3.27802c-1.69937,0.00983 -3.39873,0.02422 -5.09802,0.04358c-13.4355,0.13357 -25.92544,-0.93837 -38.73639,-5.34113c-1.66088,-0.36106 -3.32619,-0.70462 -5,-1c0,-0.66 0,-1.32 0,-2c-3.63,-0.66 -7.26,-1.32 -11,-2c0,-0.66 0,-1.32 0,-2c-2.97,-0.66 -5.94,-1.32 -9,-2c0,-0.66 0,-1.32 0,-2c-0.9075,-0.18562 -1.815,-0.37125 -2.75,-0.5625c-5.9249,-1.6492 -11.0535,-5.24622 -16.25,-8.4375c0.33,-0.99 0.66,-1.98 1,-3c1.98,0.66 3.96,1.32 6,2c0,0.66 0,1.32 0,2c0.66,0.0825 1.32,0.165 2,0.25c3.2429,0.81072 5.78361,2.09068 8.73047,3.62891c3.98072,1.96638 8.12907,3.52599 12.26953,5.12109c0,0.66 0,1.32 0,2c8.19978,3.26601 16.50077,5.53798 25.07959,7.52832c1.81924,0.44683 3.61555,0.98421 5.40869,1.52637c12.43031,3.0831 26.2833,2.07821 39.01172,2.00781c1.61328,-0.00503 3.22656,-0.00959 4.83984,-0.01367c3.88676,-0.01083 7.77344,-0.02799 11.66016,-0.04883c0,-0.66 0,-1.32 0,-2c0.70383,-0.09797 1.40766,-0.19594 2.13281,-0.29687c10.9692,-1.66114 21.58343,-4.53781 31.86719,-8.70313c0.83016,-0.30035 1.66031,-0.6007 2.51562,-0.91016c6.66373,-2.53986 12.66599,-5.82172 18.73438,-9.52734c0.74427,-0.45439 1.48854,-0.90879 2.25537,-1.37695c4.48528,-2.79421 8.71231,-5.78909 12.85693,-9.06861c1.6377,-1.11694 1.6377,-1.11694 3.6377,-1.11694c0,-0.66 0,-1.32 0,-2c5.47619,-5 5.47619,-5 8,-5c0.33,-0.99 0.66,-1.98 1,-3c1.65557,-1.34709 3.32396,-2.67846 5,-4c9.59552,-10.73439 9.59552,-10.73439 17,-23c0.66,0 1.32,0 2,0c0.09668,-0.68836 0.19336,-1.37672 0.29297,-2.08594c0.8551,-3.52436 2.32887,-6.33152 4.01953,-9.53906c3.08808,-5.96696 5.58721,-11.98281 7.6875,-18.375c0.66,0 1.32,0 2,0c0.12117,-1.06219 0.24234,-2.12438 0.36719,-3.21875c0.169,-1.42712 0.33828,-2.8542 0.50781,-4.28125c0.07863,-0.69609 0.15727,-1.39219 0.23828,-2.10937c0.08379,-0.6961 0.16758,-1.39219 0.25391,-2.10938c0.07331,-0.62842 0.14663,-1.25684 0.22217,-1.9043c0.41064,-2.37695 0.41064,-2.37695 1.427,-6.16772c1.72873,-6.79243 1.42068,-13.80588 1.42114,-20.77173c0.00206,-0.77429 0.00413,-1.54859 0.00626,-2.34634c-0.0098,-20.50376 -4.21656,-38.49776 -13.00626,-56.96616c-0.39896,-0.85336 -0.79793,-1.70672 -1.20898,-2.58594c-0.38608,-0.81469 -0.77215,-1.62937 -1.16993,-2.46875c-0.34748,-0.7346 -0.69496,-1.46921 -1.05297,-2.22607c-0.98374,-2.01056 -0.98374,-2.01056 -3.00562,-3.84424c-0.33,0.66 -0.66,1.32 -1,2c-0.55687,-1.17563 -1.11375,-2.35125 -1.6875,-3.5625c-1.45646,-2.93893 -3.03908,-5.55964 -5,-8.1875c-1.97814,-2.78008 -2.80646,-4.03833 -3.3125,-7.25c0.33,-0.33 0.66,-0.66 1,-1z"/>
  <path transform="translate(10 182)" fill="#393A3A" d="m200,99.74033c0.33,0 0.66,0 1,0c0.04898,1.08539 0.09797,2.17078 0.14844,3.28906c0.07508,1.44534 0.15063,2.89065 0.22656,4.33594c0.03094,0.71285 0.06188,1.4257 0.09375,2.16016c0.24302,4.41487 1.05138,8.01586 2.53125,12.21484c0,1.32 0,2.64 0,4c0.66,0 1.32,0 2,0c0.53625,1.17563 1.0725,2.35125 1.625,3.5625c2.35734,4.73152 5.51407,10.00704 10.375,12.4375c0,0.66 0,1.32 0,2c0.86625,0.26812 1.7325,0.53625 2.625,0.8125c3.29465,1.15923 6.25592,2.62796 9.375,4.1875c2.23525,0.68637 2.23525,0.68637 4,1c0,0.66 0,1.32 0,2c14.315,0.74274 14.315,0.74274 28.125,-2.34375c1.875,-0.65625 1.875,-0.65625 5.875,-0.65625c0,0.66 0,1.32 0,2c-3.465,0.495 -3.465,0.495 -7,1c0,0.66 0,1.32 0,2c-14.57898,2.73356 -29.43182,1.37879 -42,-7c0,-0.66 0,-1.32 0,-2c-0.88945,-0.13729 -0.88945,-0.13729 -1.79687,-0.27734c-2.72848,-0.89498 -3.67438,-2.06172 -5.45313,-4.28516c-0.52078,-0.64066 -1.04156,-1.28133 -1.57812,-1.94141c-0.38672,-0.49371 -0.77344,-0.98742 -1.17188,-1.49609c-6.48613,15.0309 -6.05685,32.05942 -4,48c0.66,0 1.32,0 2,0c0.33,1.65 0.66,3.3 1,5c-1.32,-0.33 -2.64,-0.66 -4,-1c0.55475,11.53878 3.46236,23.38442 8,34c0.85469,2.04145 1.70881,4.08313 2.5625,6.125c0.62068,1.45793 0.62068,1.45793 1.25391,2.94531c1.18909,2.9433 2.21096,5.90872 3.18359,8.92969c0.66,0 1.32,0 2,0c0.41766,0.88043 0.83531,1.76086 1.26563,2.66797c4.85318,9.3238 12.12881,19.02338 19.73437,26.33203c-3,0 -3,0 -5.48047,-2.33594c-0.91091,-1.00532 -1.81296,-2.01873 -2.70703,-3.03906c-0.46342,-0.50789 -0.92684,-1.01578 -1.4043,-1.53906c-3.4082,-3.81478 -3.4082,-3.81478 -3.4082,-6.08594c-0.66,0 -1.32,0 -2,0c-1.57078,-2.36959 -3.02119,-4.72783 -4.4375,-7.1875c-0.3951,-0.67354 -0.7902,-1.34707 -1.19727,-2.04102c-0.77269,-1.31782 -1.54152,-2.63792 -2.30615,-3.96044c-0.92071,-1.57443 -1.87929,-3.12661 -2.84424,-4.67432c-1.21484,-2.13672 -1.21484,-2.13672 -1.21484,-4.13672c-0.66,0 -1.32,0 -2,0c-6.79305,-18.9502 -6.79305,-18.9502 -9,-27c-0.1882,-0.65871 -0.37641,-1.31742 -0.57031,-1.99609c-0.71575,-3.33798 -0.48644,-6.59872 -0.42969,-10.00391c-0.66,0 -1.32,0 -2,0c-2.0631,-29.76757 -2.0631,-29.76757 0,-41c0.495,-0.495 0.495,-0.495 1,-1c0.29431,-1.3363 0.53662,-2.68419 0.75391,-4.03516c0.13213,-0.80888 0.26425,-1.61777 0.40039,-2.45117c0.1347,-0.85013 0.26941,-1.70027 0.4082,-2.57617c0.13857,-0.854 0.27715,-1.70801 0.41992,-2.58789c0.34281,-2.11595 0.68066,-4.23271 1.01758,-6.34961c0.66,0 1.32,0 2,0c-0.42152,-0.89203 -0.84305,-1.78406 -1.27734,-2.70312c-0.54786,-1.17047 -1.09571,-2.34094 -1.66016,-3.54688c-0.54527,-1.16016 -1.09055,-2.32031 -1.65234,-3.51562c-1.7885,-4.10216 -2.53798,-7.31734 -2.50782,-11.78125c0.00323,-0.84434 0.00645,-1.68868 0.00977,-2.5586c0.00838,-0.87269 0.01676,-1.74539 0.02539,-2.64453c0.00451,-0.88816 0.00902,-1.77633 0.01367,-2.69141c0.01176,-2.18626 0.02819,-4.37239 0.04883,-6.55859z"/>
  <path transform="translate(51.4297 80.8672)" fill="#323232" d="m200,99.74033c1.31678,-0.00193 1.31678,-0.00193 2.66016,-0.00391c0.9191,0.00387 1.8382,0.00774 2.78515,0.01172c1.36705,-0.0058 1.36705,-0.0058 2.76172,-0.01172c1.32065,0.00194 1.32065,0.00194 2.66797,0.00391c0.80421,0.00113 1.60843,0.00226 2.43701,0.00342c2.2099,0.12662 4.13609,0.51793 6.2583,1.12939c0,0.66 0,1.32 0,2c0.72188,0.18563 1.44375,0.37125 2.1875,0.5625c3.87743,1.9818 5.83616,4.59247 7.8125,8.4375c0.63855,2.40502 0.84681,4.49792 1,7c0.66,0 1.32,0 2,0c1.02939,5.92309 1.15011,11.68351 1.125,17.6875c0.0058,1.40476 0.0058,1.40476 0.01172,2.83789c-0.00129,0.90299 -0.00258,1.80598 -0.0039,2.73633c-0.00113,0.81429 -0.00226,1.62857 -0.00342,2.46753c-0.12623,2.21509 -0.51563,4.1439 -1.1294,6.27075c-0.99,0 -1.98,0 -3,0c-0.33,-10.89 -0.66,-21.78 -1,-33c-0.66,0 -1.32,0 -2,0c-0.34611,-0.92232 -0.34611,-0.92232 -0.69922,-1.86328c-2.00826,-4.97699 -3.25086,-7.75203 -8.30078,-10.13672c0,-0.66 0,-1.32 0,-2c-3.63,-0.66 -7.26,-1.32 -11,-2c-0.66,1.32 -1.32,2.64 -2,4c-3.22143,2.14762 -4.25954,2.56107 -8,2c-1.8125,-1.8125 -1.8125,-1.8125 -3,-4c0,-0.99 0,-1.98 0,-3c2.35973,-1.17986 3.80048,-1.12911 6.42969,-1.13281z"/>
  <path transform="translate(66.0664 179.563)" fill="#111212" d="m200,99.74033c2.75587,0.62355 4.72348,1.6962 6.93359,3.4375c1.71831,3.43662 1.38793,7.23442 1,11c-1.375,2.5625 -1.375,2.5625 -3,4c-0.66,0 -1.32,0 -2,0c0,0.66 0,1.32 0,2c-7.46592,0.36718 -7.46592,0.36718 -10,-1.375c-1,-1.625 -1,-1.625 -1,-3.625c-0.66,0 -1.32,0 -2,0c-1.07605,-4.71807 -1.66096,-7.7645 0.9375,-12c2.71312,-3.31015 4.94845,-3.81682 9.12891,-3.4375z"/>
  <path transform="translate(130 181)" fill="#0C0C0C" d="m200,99.74033c2.78604,2.1227 3.71582,3.50051 4.36719,6.9375c0.24793,3.85032 -0.12477,5.68271 -2.24219,9c-2.66554,2.58715 -3.67023,2.99254 -7.375,3.5625c-3.98896,-0.53186 -4.59474,-0.82901 -7.1875,-3.625c-1.91239,-2.53622 -2.55021,-3.8067 -3.125,-7c0.62983,-3.21913 1.61144,-5.24858 3.5625,-7.875c3.7207,-1.86035 7.94775,-1.56209 12,-1z"/>
  <path transform="translate(164.43 112.871)" fill="#555230" d="m200,99.74033c14.11382,-0.27494 30.17537,0.57463 43.57031,5.12891c2.98849,0.72254 5.99049,1.37134 9,2c0,0.66 0,1.32 0,2c1.00289,0.09796 2.00578,0.19593 3.03907,0.29687c4.10881,0.59081 7.63451,2.13027 11.33593,3.95313c0.6505,0.31284 1.30099,0.62567 1.97119,0.94799c14.1984,6.89118 14.1984,6.89118 15.65381,9.80201c-5.82112,-0.65445 -10.49597,-3.84424 -15.49804,-6.67383c-4.79439,-2.63584 -9.13782,-4.21698 -14.50196,-5.32617c0,-0.66 0,-1.32 0,-2c-4.29,-0.66 -8.58,-1.32 -13,-2c0,-0.66 0,-1.32 0,-2c-0.78761,-0.04899 -1.57523,-0.09797 -2.38672,-0.14844c-1.08925,-0.07477 -2.17851,-0.14953 -3.30078,-0.22656c-1.05574,-0.06961 -2.11148,-0.13922 -3.19922,-0.21094c-3.39802,-0.28178 -6.71147,-0.85651 -10.07031,-1.4375c-6.99849,-1.10078 -13.91355,-1.28096 -20.98144,-1.23731c-2.05987,0.01074 -4.11887,0.00003 -6.17872,-0.01269c-7.48004,-0.0067 -14.65141,0.48426 -22.01562,1.84473c-2.99647,0.44804 -5.84198,0.4994 -8.86719,0.42871c0,0.66 0,1.32 0,2c6.27,0 12.54,0 19,0c0,0.33 0,0.66 0,1c-4.04165,0.02915 -8.08327,0.04685 -12.125,0.0625c-1.71316,0.01256 -1.71316,0.01256 -3.46094,0.02539c-1.10859,0.00322 -2.21718,0.00644 -3.35937,0.00976c-1.52391,0.00786 -1.52391,0.00786 -3.07861,0.01587c-3.06722,-0.117 -5.96241,-0.54576 -8.97608,-1.11352c3.40195,-2.09351 6.05273,-2.17943 10,-2c0,-0.66 0,-1.32 0,-2c12.45782,-2.12443 24.82645,-2.65521 37.42969,-3.12891z"/>
  <path transform="translate(143.5 74.8125)" fill="#3B3B3B" d="m200,99.74033c0.82242,0.01354 1.64484,0.02707 2.49219,0.04102c2.00289,0.03493 4.00544,0.08872 6.00781,0.14648c0.91964,2.95418 1.12217,3.70815 -0.125,6.6875c-1.875,2.3125 -1.875,2.3125 -4.1875,3.4375c-4.17822,-0.19434 -5.76455,-2.20205 -8.6875,-5.125c0,-0.66 0,-1.32 0,-2c-1.77444,0.59349 -3.54446,1.20022 -5.3125,1.8125c-0.98613,0.33645 -1.97227,0.67289 -2.98828,1.01953c-2.60415,1.12683 -3.80749,2.13654 -5.69922,4.16797c-0.66,0 -1.32,0 -2,0c-0.66,2.31 -1.32,4.62 -2,7c-0.66,0 -1.32,0 -2,0c-0.66,8.91 -1.32,17.82 -2,27c-0.33,0 -0.66,0 -1,0c-0.33,-5.28 -0.66,-10.56 -1,-16c-0.33,5.94 -0.66,11.88 -1,18c-0.33,0 -0.66,0 -1,0c-0.61917,-21.81379 -0.61917,-21.81379 3,-30c0.66,0 1.32,0 2,0c0.04125,-0.88687 0.0825,-1.77375 0.125,-2.6875c1.19996,-4.54269 3.16569,-5.53052 6.875,-8.3125c0.33,-0.66 0.66,-1.32 1,-2c6.02454,-2.80195 10.91747,-3.39655 17.5,-3.1875z"/>
  <path transform="translate(76 372)" fill="#4E4C37" d="m200,99.74033c1.98,0.66 3.96,1.32 6,2c0,0.66 0,1.32 0,2c0.66,0.0825 1.32,0.165 2,0.25c3.2429,0.81072 5.78361,2.09068 8.73047,3.62891c3.98072,1.96638 8.12907,3.52599 12.26953,5.12109c0,0.66 0,1.32 0,2c8.19367,3.26358 16.4846,5.51608 25.05029,7.52686c1.31117,0.31818 2.61768,0.65616 3.91895,1.01269c4.86149,1.31718 9.50579,1.86212 14.53076,2.08545c0.72703,0.03867 1.45406,0.07734 2.20313,0.11719c1.76527,0.09291 3.53103,0.17638 5.29687,0.25781c-8.92163,5.13608 -21.52384,1.18142 -31,-1c-2.00678,-0.64597 -4.00852,-1.30831 -6,-2c-1.66088,-0.36106 -3.32619,-0.70462 -5,-1c0,-0.66 0,-1.32 0,-2c-3.63,-0.66 -7.26,-1.32 -11,-2c0,-0.66 0,-1.32 0,-2c-2.97,-0.66 -5.94,-1.32 -9,-2c0,-0.66 0,-1.32 0,-2c-0.9075,-0.18562 -1.815,-0.37125 -2.75,-0.5625c-5.9249,-1.6492 -11.0535,-5.24622 -16.25,-8.4375c0.33,-0.99 0.66,-1.98 1,-3z"/>
  <path transform="translate(201 195)" fill="#44433B" d="m200,99.74033c0.66,0 1.32,0 2,0c0.57253,11.06885 -0.88104,20.40389 -4,31c-0.66,0 -1.32,0 -2,0c-0.14438,0.76312 -0.28875,1.52625 -0.4375,2.3125c-0.5625,2.6875 -0.5625,2.6875 -1.5625,5.6875c-0.66,0 -1.32,0 -2,0c-0.25781,0.57234 -0.51563,1.14469 -0.78125,1.73438c-1.33241,2.47691 -2.86931,4.39974 -4.71875,6.51562c-0.91266,1.05961 -0.91266,1.05961 -1.84375,2.14063c-1.65625,1.60937 -1.65625,1.60937 -3.65625,1.60937c-0.33,0.99 -0.66,1.98 -1,3c-2.0625,0.6875 -2.0625,0.6875 -4,1c0,0.66 0,1.32 0,2c-1.60032,0.84069 -3.20541,1.67232 -4.8125,2.5c-0.89332,0.46406 -1.78664,0.92813 -2.70703,1.40625c-2.48047,1.09375 -2.48047,1.09375 -5.48047,1.09375c0,0.66 0,1.32 0,2c-9.94705,2.50353 -19.82767,2.18974 -30,2c0,-0.33 0,-0.66 0,-1c0.98098,-0.02578 1.96195,-0.05156 2.97266,-0.07812c13.35765,-0.49894 25.31154,-2.71981 36.95312,-9.75c2.07422,-1.17188 2.07422,-1.17188 4.07422,-1.17188c0,-0.66 0,-1.32 0,-2c1.60937,-1.55078 1.60937,-1.55078 3.75,-3.3125c12.70183,-10.84576 17.59468,-26.52675 18.875,-42.75c0.13146,-1.97875 0.25873,-3.9578 0.375,-5.9375z"/>
  <path transform="translate(11 262)" fill="#535243" d="m200,99.74033c0.33,0 0.66,0 1,0c0.33,4.29 0.66,8.58 1,13c0.33,0 0.66,0 1,0c0.13575,0.62455 0.27151,1.2491 0.41138,1.89258c0.62759,2.87051 1.26429,5.73894 1.90112,8.60742c0.21334,0.98227 0.42668,1.96453 0.64648,2.97656c2.00961,8.99822 5.24967,17.11946 8.85743,25.59375c1.18909,2.9433 2.21096,5.90872 3.18359,8.92969c0.66,0 1.32,0 2,0c0.41766,0.88043 0.83531,1.76086 1.26563,2.66797c4.85318,9.3238 12.12881,19.02338 19.73437,26.33203c-3,0 -3,0 -5.48047,-2.33594c-0.91091,-1.00532 -1.81296,-2.01873 -2.70703,-3.03906c-0.69513,-0.76184 -0.69513,-0.76184 -1.4043,-1.53906c-3.4082,-3.81478 -3.4082,-3.81478 -3.4082,-6.08594c-0.66,0 -1.32,0 -2,0c-1.57078,-2.36959 -3.02119,-4.72783 -4.4375,-7.1875c-0.3951,-0.67354 -0.7902,-1.34707 -1.19727,-2.04102c-0.77269,-1.31782 -1.54152,-2.63792 -2.30615,-3.96044c-0.92071,-1.57443 -1.87929,-3.12661 -2.84424,-4.67432c-1.21484,-2.13672 -1.21484,-2.13672 -1.21484,-4.13672c-0.66,0 -1.32,0 -2,0c-6.79305,-18.9502 -6.79305,-18.9502 -9,-27c-0.2823,-0.98807 -0.2823,-0.98807 -0.57031,-1.99609c-0.71575,-3.33798 -0.48644,-6.59872 -0.42969,-10.00391c-0.66,0 -1.32,0 -2,0c0,-5.28 0,-10.56 0,-16z"/>
  <path transform="translate(67 144)" fill="#484848" d="m200,99.74033c0.495,0.99 0.495,0.99 1,2c-3.55564,1.18521 -6.91836,1.27041 -10.625,1.4375c-8.22981,0.44348 -15.58855,1.76736 -23.375,4.5625c0,0.66 0,1.32 0,2c-1.45406,0.68062 -1.45406,0.68062 -2.9375,1.375c-8.86156,5.0972 -14.87223,13.77285 -17.58374,23.49365c-0.47497,2.11449 -0.68052,4.07875 -0.79517,6.24073c-0.04189,0.7541 -0.08379,1.5082 -0.12695,2.28515c-0.05897,1.16596 -0.05897,1.16596 -0.11914,2.35547c-0.04318,0.79277 -0.08637,1.58555 -0.13086,2.40234c-0.10567,1.94904 -0.20662,3.89833 -0.30664,5.84766c-0.33,0 -0.66,0 -1,0c-1.32825,-11.71757 -1.49047,-20.24704 4,-31c0.66,0 1.32,0 2,0c0.66,-1.65 1.32,-3.3 2,-5c0.66,0 1.32,0 2,0c0.39832,-0.89719 0.39832,-0.89719 0.80469,-1.8125c3.3342,-6.1018 9.98007,-9.58454 16.19531,-12.1875c1.17691,-0.5182 2.35383,-1.03641 3.56641,-1.57031c5.07119,-1.88265 10.0721,-1.98777 15.43359,-2.11719c0.96551,-0.03416 1.93102,-0.06832 2.92578,-0.10352c2.35796,-0.08171 4.71558,-0.1511 7.07422,-0.20898z"/>
  <path transform="translate(135 146)" fill="#484634" d="m200,99.74033c14.74775,-0.40047 26.79726,-0.22414 40,7c0,0.66 0,1.32 0,2c0.73477,0.25781 1.46953,0.51563 2.22656,0.78125c10.6441,4.67741 17.66546,15.88603 22.04688,26.21094c1.61126,4.45262 1.818,8.25293 1.72656,13.00781c-0.33,0 -0.66,0 -1,0c-0.21914,-0.89461 -0.43828,-1.78922 -0.66406,-2.71094c-3.33023,-12.69819 -9.32765,-25.90436 -21.11328,-32.94922c-0.73348,-0.44214 -1.46696,-0.88429 -2.22266,-1.33984c0,-0.66 0,-1.32 0,-2c-2.31,-0.66 -4.62,-1.32 -7,-2c0,-0.66 0,-1.32 0,-2c-3.63,-0.66 -7.26,-1.32 -11,-2c0,-0.66 0,-1.32 0,-2c-11.385,-0.495 -11.385,-0.495 -23,-1c0,-0.33 0,-0.66 0,-1z"/>
  <path transform="translate(233.375 384.813)" fill="#413E25" d="m200,99.74033c0.53625,0.39188 1.0725,0.78375 1.625,1.1875c-2.906,1.25665 -4.79605,2 -8,2c0,0.66 0,1.32 0,2c-6.36458,1.98541 -12.74951,3.72051 -19.23828,5.25391c-2.733,0.66446 -2.733,0.66446 -5.08203,1.76562c-3.68013,1.34652 -7.36822,1.72648 -11.24219,2.10547c-1.26699,0.12738 -1.26699,0.12738 -2.55957,0.25732c-12.25754,1.08515 -24.58606,0.79084 -36.87793,0.61768c0,-0.33 0,-0.66 0,-1c12.87,-0.33 25.74,-0.66 39,-1c0,-0.66 0,-1.32 0,-2c1.05574,-0.14695 1.05574,-0.14695 2.13281,-0.29687c11.92286,-1.80555 24.49899,-4.59394 35.11719,-10.51563c2.75,-1.1875 2.75,-1.1875 5.125,-0.375z"/>
  <path transform="translate(89 224)" fill="#403F3A" d="m200,99.74033c0,0.66 0,1.32 0,2c0.66,0 1.32,0 2,0c0.26812,0.61746 0.53625,1.23492 0.8125,1.87109c6.08698,13.15508 16.02119,22.26687 29.64844,27.28516c4.15223,1.37982 8.32662,2.66068 12.53906,3.84375c0,0.33 0,0.66 0,1c-11.59691,0.46388 -22.89974,-5.56672 -31.76172,-12.80859c-5.76123,-5.64058 -11.62347,-12.50416 -14.23828,-20.19141c-0.99,0 -1.98,0 -3,0c0,0.66 0,1.32 0,2c-1.8125,1.0625 -1.8125,1.0625 -4,2c-0.99,-0.33 -1.98,-0.66 -3,-1c0.66,0 1.32,0 2,0c0,-0.66 0,-1.32 0,-2c5.29412,-4 5.29412,-4 9,-4z"/>
  <path transform="translate(143.25 74.75)" fill="#262626" d="m200,99.74033c0.84047,0.01805 1.68094,0.03609 2.54688,0.05469c2.06819,0.047 4.1358,0.11874 6.20312,0.19531c0.91964,2.95418 1.12217,3.70815 -0.125,6.6875c-1.875,2.3125 -1.875,2.3125 -4.1875,3.4375c-4.17822,-0.19434 -5.76455,-2.20205 -8.6875,-5.125c0,-0.66 0,-1.32 0,-2c-4.455,0.495 -4.455,0.495 -9,1c3.63686,-5.07562 7.54406,-4.4818 13.25,-4.25z"/>
  <path transform="translate(26 224)" fill="#3C3A26" d="m200,99.74033c0.66,0 1.32,0 2,0c0,0.66 0,1.32 0,2c0.86625,0.26812 1.7325,0.53625 2.625,0.8125c3.29465,1.15923 6.25592,2.62796 9.375,4.1875c2.23525,0.68637 2.23525,0.68637 4,1c0,0.66 0,1.32 0,2c14.315,0.74274 14.315,0.74274 28.125,-2.34375c1.875,-0.65625 1.875,-0.65625 5.875,-0.65625c0,0.66 0,1.32 0,2c-2.31,0.33 -4.62,0.66 -7,1c0,0.66 0,1.32 0,2c-14.57898,2.73356 -29.43182,1.37879 -42,-7c0,-0.66 0,-1.32 0,-2c-1.32,-0.66 -2.64,-1.32 -4,-2c0.33,-0.33 0.66,-0.66 1,-1z"/>
  <path transform="translate(122.813 132.75)" fill="#908727" d="m200,99.74033c0.9411,-0.00902 1.88219,-0.01805 2.85181,-0.02734c6.6274,0.02781 12.85812,0.89776 19.33569,2.27734c0,0.33 0,0.66 0,1c-13.86,-0.33 -27.72,-0.66 -42,-1c0,0.66 0,1.32 0,2c-0.69867,0.13277 -1.39734,0.26555 -2.11719,0.40234c-0.91008,0.17661 -1.82015,0.35321 -2.75781,0.53516c-1.35738,0.26104 -1.35738,0.26104 -2.74219,0.52734c-2.38237,0.4348 -2.38237,0.4348 -4.38281,1.53516c-2.33299,0.04022 -4.66707,0.0432 -7,0c2.39763,-2.39763 3.33273,-2.34281 6.625,-2.625c0.81727,-0.07477 1.63453,-0.14953 2.47656,-0.22656c0.62649,-0.04899 1.25297,-0.09797 1.89844,-0.14844c0,-0.66 0,-1.32 0,-2c9.29096,-1.51029 18.40064,-2.21321 27.8125,-2.25z"/>
  <path transform="translate(196 117)" fill="#4E4C3E" d="m200,99.74033c5.06317,-0.15639 9.50398,0.37234 14.4375,1.5c1.23621,0.27844 2.47242,0.55687 3.74609,0.84375c1.39412,0.32484 1.39412,0.32484 2.81641,0.65625c0,0.66 0,1.32 0,2c1.50434,0.14695 1.50434,0.14695 3.03906,0.29688c4.10881,0.5908 7.63452,2.13027 11.33594,3.95312c0.65049,0.31284 1.30099,0.62568 1.97119,0.948c14.1984,6.89117 14.1984,6.89117 15.65381,9.802c-5.82112,-0.65445 -10.49597,-3.84424 -15.49805,-6.67383c-4.79439,-2.63584 -9.13781,-4.21697 -14.50195,-5.32617c0,-0.66 0,-1.32 0,-2c-4.29,-0.66 -8.58,-1.32 -13,-2c0,-0.66 0,-1.32 0,-2c-3.3,-0.33 -6.6,-0.66 -10,-1c0,-0.33 0,-0.66 0,-1z"/>
  <path transform="translate(12 238)" fill="#272618" d="m200,99.74033c0.33,0 0.66,0 1,0c0.06059,1.25555 0.12117,2.51109 0.18359,3.80469c0.41789,8.42422 0.85439,16.81198 1.81641,25.19531c0.66,0 1.32,0 2,0c0.33,1.65 0.66,3.3 1,5c-1.32,-0.33 -2.64,-0.66 -4,-1c-0.495,2.475 -0.495,2.475 -1,5c-0.33,0 -0.66,0 -1,0c-0.06059,-0.99902 -0.12117,-1.99805 -0.18359,-3.02734c-0.08379,-1.29036 -0.16758,-2.58071 -0.25391,-3.91016c-0.08121,-1.28777 -0.16242,-2.57555 -0.24609,-3.90234c0.0344,-3.0204 0.0344,-3.0204 -1.31641,-4.16016c-0.0732,-2.69655 -0.09243,-5.36691 -0.0625,-8.0625c0.00451,-0.75861 0.00902,-1.51723 0.01367,-2.29883c0.01182,-1.87959 0.02976,-3.75914 0.04883,-5.63867c0.66,0 1.32,0 2,0c0,-2.31 0,-4.62 0,-7z"/>
  <path transform="translate(102 386)" fill="#B7AA1E" d="m200,99.74033c4.04848,0.44005 7.58885,1.16502 11.4375,2.5c6.19587,1.89385 12.24677,2.05644 18.6875,2.1875c1.14727,0.03416 2.29453,0.06832 3.47656,0.10352c2.79938,0.08164 5.59848,0.15106 8.39844,0.20898c0,0.66 0,1.32 0,2c-3.3,0.33 -6.6,0.66 -10,1c0,0.66 0,1.32 0,2c-5.7288,-1.2276 -11.43182,-2.55502 -17.125,-3.9375c-0.66838,-0.15759 -1.33676,-0.31518 -2.02539,-0.47754c-4.52518,-1.11235 -8.60819,-2.65153 -12.84961,-4.58496c0,-0.33 0,-0.66 0,-1z"/>
  <path transform="translate(24 313)" fill="#42402F" d="m200,99.74033c2.91227,3.28805 4.49701,5.59886 5,10c0.66,0 1.32,0 2,0c0.41766,0.88043 0.83531,1.76086 1.26563,2.66797c4.85318,9.3238 12.12881,19.02338 19.73437,26.33203c-3,0 -3,0 -5.48047,-2.33594c-0.91091,-1.00532 -1.81296,-2.01873 -2.70703,-3.03906c-0.69513,-0.76184 -0.69513,-0.76184 -1.4043,-1.53906c-3.4082,-3.81478 -3.4082,-3.81478 -3.4082,-6.08594c-0.66,0 -1.32,0 -2,0c-1.55172,-2.32758 -2.97962,-4.64339 -4.375,-7.0625c-0.38672,-0.65678 -0.77344,-1.31355 -1.17187,-1.99023c-0.7767,-1.32273 -1.54721,-2.6491 -2.31153,-3.97901c-0.75706,-1.30527 -1.53111,-2.60085 -2.32226,-3.88574c-2.06566,-3.40788 -2.81934,-4.9872 -2.81934,-9.08252z"/>
  <path transform="translate(203 133)" fill="#1B1A10" d="m200,99.74033c6.75,0.875 6.75,0.875 9,2c0,0.66 0,1.32 0,2c0.55687,0.22687 1.11375,0.45375 1.6875,0.6875c2.9741,1.688 5.03259,3.77927 7.3125,6.3125c0,0.66 0,1.32 0,2c0.66,0 1.32,0 2,0c2,3 2,3 2,6c-0.99,0 -1.98,0 -3,0c-0.91934,-1.39604 -1.83226,-2.79677 -2.71094,-4.21875c-3.44634,-4.76222 -8.52299,-8.30163 -13.28906,-11.65625c-0.99,-0.70125 -1.98,-1.4025 -3,-2.125c0,-0.33 0,-0.66 0,-1z"/>
  <path transform="translate(317 253)" fill="#4A4837" d="m200,99.74033c0.66,0 1.32,0 2,0c0,7.92 0,15.84 0,24c-0.66,0 -1.32,0 -2,0c0.04125,1.11375 0.0825,2.2275 0.125,3.375c0.01801,5.02401 -1.00542,9.74682 -2.125,14.625c-0.33,0 -0.66,0 -1,0c-0.91883,-4.88815 -0.9314,-8.34284 0.375,-13.125c2.25462,-9.51266 2.37266,-19.13562 2.625,-28.875z"/>
  <path transform="translate(128.688 393.875)" fill="#595747" d="m200,99.74033c1.30034,0.28037 1.30034,0.28037 2.62695,0.56641c6.3597,1.39567 6.3597,1.39567 8.68555,2.55859c2.71262,0.23226 5.40773,0.41936 8.125,0.5625c0.7541,0.04318 1.5082,0.08637 2.28516,0.13086c1.86306,0.10612 3.72643,0.20689 5.58984,0.30664c-8.92163,5.13608 -21.52384,1.18142 -31,-1c-2.00678,-0.64597 -4.00852,-1.30831 -6,-2c-1.66088,-0.36106 -3.32619,-0.70462 -5,-1c0,-0.33 0,-0.66 0,-1c5.10415,-1.66279 9.62047,-0.27816 14.6875,0.875z"/>
  <path transform="translate(135 146)" fill="#4F4E4C" d="m200,99.74033c14.74775,-0.40047 26.79726,-0.22414 40,7c0,0.66 0,1.32 0,2c2.475,0.99 2.475,0.99 5,2c-0.66,0.66 -1.32,1.32 -2,2c-0.66,-0.33 -1.32,-0.66 -2,-1c0,-0.66 0,-1.32 0,-2c-2.31,-0.66 -4.62,-1.32 -7,-2c0,-0.66 0,-1.32 0,-2c-3.63,-0.66 -7.26,-1.32 -11,-2c0,-0.66 0,-1.32 0,-2c-11.385,-0.495 -11.385,-0.495 -23,-1c0,-0.33 0,-0.66 0,-1z"/>
  <path transform="translate(54.625 81.4375)" fill="#6D6D6D" d="m200,99.74033c0.70641,0.05221 1.41281,0.10441 2.14063,0.1582c1.74517,0.12971 3.48983,0.26635 5.23437,0.4043c-0.95713,0.18756 -0.95713,0.18756 -1.93359,0.37891c-2.24619,0.41178 -2.24619,0.41178 -3.12891,2.55859c-0.30938,0.68063 -0.61875,1.36125 -0.9375,2.0625c-3.22143,2.14762 -4.25955,2.56107 -8,2c-1.8125,-1.8125 -1.8125,-1.8125 -3,-4c0,-0.99 0,-1.98 0,-3c3.09796,-1.54898 6.26217,-0.8324 9.625,-0.5625z"/>
  <path transform="translate(201 195)" fill="#565543" d="m200,99.74033c0.66,0 1.32,0 2,0c0.57253,11.06885 -0.88104,20.40389 -4,31c-1.32,0.33 -2.64,0.66 -4,1c0.19336,-0.61746 0.38672,-1.23492 0.58594,-1.87109c3.11455,-10.13 4.79098,-19.52014 5.41406,-30.12891z"/>
  <path transform="translate(177.5 113.313)" fill="#555337" d="m200,99.74033c0.87624,0.04633 1.75248,0.09265 2.65527,0.14038c7.35808,0.43081 14.57601,1.30759 21.84473,2.54712c0,0.33 0,0.66 0,1c-6.50472,1.10249 -11.75244,0.68484 -18.22656,-0.45312c-7.21035,-1.04498 -14.5002,-1.23669 -21.77344,-1.54688c0,-0.33 0,-0.66 0,-1c5.27026,-1.1379 10.1619,-0.99133 15.5,-0.6875z"/>
  <path transform="translate(13 268)" fill="#CFBF15" d="m200,99.74033c3.11985,3.46067 3.80867,6.73032 4.6875,11.25c0.37705,1.89492 0.37705,1.89492 0.76172,3.82813c0.27264,1.44632 0.27264,1.44632 0.55078,2.92187c0.66,0 1.32,0 2,0c0.33,1.32 0.66,2.64 1,4c-2,0 -2,0 -3.625,-1.5c-0.45375,-0.495 -0.9075,-0.99 -1.375,-1.5c-0.33,0.66 -0.66,1.32 -1,2c-0.50921,-2.18537 -1.00694,-4.37342 -1.5,-6.5625c-0.27844,-1.21816 -0.55687,-2.43633 -0.84375,-3.69141c-0.64263,-3.66832 -0.771,-7.03112 -0.65625,-10.74609z"/>
  <path transform="translate(78 256)" fill="#171710" d="m200,99.74033c3.2755,0.58389 4.88517,1.56757 7.25,3.875c3.65523,3.29843 7.07867,4.64984 11.75,6.125c0,0.66 0,1.32 0,2c-7.60186,0 -11.30728,-2.18957 -17.12891,-6.99219c-1.87109,-2.00781 -1.87109,-2.00781 -1.87109,-5.00781z"/>
  <path transform="translate(116 91)" fill="#595959" d="m200,99.74033c2.44039,9.51337 1.76374,18.31815 1,28c-0.33,0 -0.66,0 -1,0c-0.33,-5.28 -0.66,-10.56 -1,-16c-0.33,5.94 -0.66,11.88 -1,18c-0.33,0 -0.66,0 -1,0c-0.61917,-21.81379 -0.61917,-21.81379 3,-30z"/>
  <path transform="translate(19 162)" fill="#616162" d="m200,99.74033c0.64453,1.76172 0.64453,1.76172 1,4c-0.92578,1.89453 -0.92578,1.89453 -2.3125,3.8125c-4.4147,6.13504 -5.01148,12.80646 -5.3125,20.125c-0.03867,0.77924 -0.07734,1.55848 -0.11719,2.36133c-0.09325,1.90004 -0.17657,3.80057 -0.25781,5.70117c-0.33,0 -0.66,0 -1,0c-1.32825,-11.71757 -1.49047,-20.24704 4,-31c0.66,0 1.32,0 2,0c0.66,-1.65 1.32,-3.3 2,-5z"/>
  <path transform="translate(294 333)" fill="#383628" d="m200,99.74033c0.33,0.66 0.66,1.32 1,2c-5.85247,7.90512 -11.78769,15.25806 -19,22c0,-4.14614 1.66781,-5.09809 4.5,-8.0625c4.79286,-5.09467 9.20804,-10.4107 13.5,-15.9375z"/>
  <path transform="translate(202 187)" fill="#FBF95B" d="m200,99.74033c0.33,0 0.66,0 1,0c1.72449,10.83773 2.89556,21.23698 0,32c-1.58203,1.91406 -1.58203,1.91406 -3,3c0.14168,-1.43792 0.28851,-2.87532 0.4375,-4.3125c0.08121,-0.80051 0.16242,-1.60102 0.24609,-2.42578c0.31641,-2.26172 0.31641,-2.26172 1.31641,-5.26172c0.0821,-1.77314 0.10746,-3.54921 0.09766,-5.32422c-0.00323,-1.02803 -0.00645,-2.05605 -0.00977,-3.11523c-0.00838,-1.07186 -0.01676,-2.14371 -0.02539,-3.24805c-0.00451,-1.08346 -0.00902,-2.16691 -0.01367,-3.2832c-0.01179,-2.67649 -0.02825,-5.35287 -0.04883,-8.0293z"/>
  <path transform="translate(296 185)" fill="#A99C1B" d="m200,99.74033c4.46666,3.6395 7.33119,8.53562 9,14c-0.1581,3.52605 -0.88417,6.65963 -2,10c-0.33,0 -0.66,0 -1,0c-0.09797,-0.75023 -0.19594,-1.50047 -0.29687,-2.27344c-0.92692,-6.34457 -2.29734,-11.89891 -4.89844,-17.76562c-0.80469,-1.96094 -0.80469,-1.96094 -0.80469,-3.96094z"/>
  <path transform="translate(148 117)" fill="#D6C512" d="m200,99.74033c-0.99,1.485 -0.99,1.485 -2,3c-2.95064,0.22086 -5.68368,0.28061 -8.625,0.1875c-0.8018,-0.01354 -1.60359,-0.02707 -2.42969,-0.04102c-1.98205,-0.03539 -3.96377,-0.0892 -5.94531,-0.14648c0,-0.66 0,-1.32 0,-2c2.41559,-0.36354 4.83194,-0.71611 7.25,-1.0625c0.68191,-0.10377 1.36383,-0.20754 2.06641,-0.31445c3.46858,-0.4883 6.3527,-0.85067 9.68359,0.37695z"/>
  <path transform="translate(137 77)" fill="#3D3D3D" d="m200,99.74033c3.3,0 6.6,0 10,0c0,0.66 0,1.32 0,2c-0.66,0 -1.32,0 -2,0c0,0.66 0,1.32 0,2c1.32,0 2.64,0 4,0c0,1.32 0,2.64 0,4c-4.38462,-0.5011 -6.8001,-1.98295 -10,-5c0,-0.66 0,-1.32 0,-2c-0.66,-0.33 -1.32,-0.66 -2,-1z"/>
  <path transform="translate(168 113)" fill="#43412A" d="m200,99.74033c0,0.33 0,0.66 0,1c-0.87737,0.08302 -0.87737,0.08302 -1.77246,0.16772c-2.65949,0.25345 -5.31851,0.51157 -7.97754,0.76978c-1.38059,0.13052 -1.38059,0.13052 -2.78906,0.26367c-1.33418,0.13052 -1.33418,0.13052 -2.69532,0.26367c-0.81694,0.07856 -1.63388,0.15711 -2.47558,0.23804c-2.1626,0.28059 -4.18044,0.75803 -6.29004,1.29712c-1.58212,0.06548 -3.1667,0.08578 -4.75,0.0625c-0.79922,-0.00902 -1.59844,-0.01805 -2.42188,-0.02734c-0.60328,-0.01161 -1.20656,-0.02321 -1.82812,-0.03516c0.33,-0.66 0.66,-1.32 1,-2c4.7676,-1.4456 9.92959,-1.34166 14.875,-1.5625c0.8727,-0.04318 1.74539,-0.08637 2.64453,-0.13086c4.83285,-0.22892 9.64242,-0.35278 14.48047,-0.30664z"/>
  <path transform="translate(225 125)" fill="#3A3826" d="m200,99.74033c5.67975,0.51634 9.89577,2.75908 14.8125,5.4375c0.77537,0.40799 1.55074,0.81598 2.34961,1.23633c5.70448,3.05936 5.70448,3.05936 6.83789,5.32617c-3.61393,-0.58415 -6.42476,-1.5548 -9.64453,-3.28516c-0.84111,-0.44795 -1.68223,-0.89589 -2.54883,-1.35742c-0.86432,-0.46857 -1.72863,-0.93715 -2.61914,-1.41992c-0.88365,-0.47244 -1.7673,-0.94488 -2.67773,-1.43164c-2.17309,-1.16289 -4.34279,-2.33164 -6.50977,-3.50586c0,-0.33 0,-0.66 0,-1z"/>
  <path transform="translate(89 224)" fill="#404039" d="m200,99.74033c0,0.66 0,1.32 0,2c0.66,0 1.32,0 2,0c1.5625,2.8125 1.5625,2.8125 3,6c-0.33,0.99 -0.66,1.98 -1,3c-2.12039,-2.61514 -4.13092,-5.19638 -6,-8c-0.66,0 -1.32,0 -2,0c0,0.66 0,1.32 0,2c-1.8125,1.0625 -1.8125,1.0625 -4,2c-0.99,-0.33 -1.98,-0.66 -3,-1c0.66,0 1.32,0 2,0c0,-0.66 0,-1.32 0,-2c5.29412,-4 5.29412,-4 9,-4z"/>
  <path transform="translate(75 138)" fill="#4A4622" d="m200,99.74033c0.66,0.33 1.32,0.66 2,1c-0.66,0.66 -1.32,1.32 -2,2c2.64,-0.33 5.28,-0.66 8,-1c0,0.66 0,1.32 0,2c-1.7695,0.50471 -3.54065,1.00361 -5.3125,1.5c-1.4792,0.41766 -1.4792,0.41766 -2.98828,0.84375c-2.69922,0.65625 -2.69922,0.65625 -5.69922,0.65625c0,0.66 0,1.32 0,2c-1.32,-0.33 -2.64,-0.66 -4,-1c0.99,0 1.98,0 3,0c0.04125,-0.5775 0.0825,-1.155 0.125,-1.75c1.31566,-3.38312 3.84052,-4.44223 6.875,-6.25z"/>
  <path transform="translate(164 258)" fill="#404039" d="m200,99.74033c0,0.33 0,0.66 0,1c-9.94705,2.50353 -19.82767,2.18974 -30,2c0,-0.33 0,-0.66 0,-1c1.61068,-0.07348 1.61068,-0.07348 3.25391,-0.14844c1.43622,-0.07509 2.87241,-0.15064 4.30859,-0.22656c0.70447,-0.03094 1.40895,-0.06187 2.13477,-0.09375c7.18084,-0.3971 13.08524,-3.00421 20.30273,-1.53125z"/>
  <path transform="translate(15 218)" fill="#525143" d="m200,99.74033c0.33,0 0.66,0 1,0c1.16384,4.94825 0.67338,8.99657 -0.4375,13.875c-0.1476,0.68836 -0.2952,1.37672 -0.44727,2.08594c-0.36205,1.6818 -0.73729,3.36076 -1.11523,5.03906c-0.33,0 -0.66,0 -1,0c-0.33,1.98 -0.66,3.96 -1,6c-0.33,0 -0.66,0 -1,0c-0.09766,-6.15234 -0.09766,-6.15234 0,-8c0.33,-0.33 0.66,-0.66 1,-1c0.29431,-1.3363 0.53662,-2.68419 0.75391,-4.03516c0.13213,-0.80888 0.26425,-1.61777 0.40039,-2.45117c0.1347,-0.85013 0.26941,-1.70027 0.4082,-2.57617c0.13857,-0.854 0.27715,-1.70801 0.41992,-2.58789c0.34281,-2.11595 0.68066,-4.23271 1.01758,-6.34961z"/>
  <path transform="translate(83 112)" fill="#0F0F0F" d="m200,99.74033c2,2 2,2 2.23047,5.15234c-0.01418,1.24911 -0.02836,2.49821 -0.04297,3.78516c-0.00645,1.24652 -0.01289,2.49305 -0.01953,3.77734c-0.16797,3.28516 -0.16797,3.28516 -1.16797,6.28516c-0.66,0 -1.32,0 -2,0c-0.1035,-6.41689 0.25492,-12.62694 1,-19z"/>
  <path transform="translate(49 81)" fill="#292929" d="m200,99.74033c2.91673,-0.02701 5.83321,-0.04684 8.75,-0.0625c1.2375,-0.01257 1.2375,-0.01257 2.5,-0.02539c0.79922,-0.00322 1.59844,-0.00645 2.42188,-0.00977c0.73315,-0.00523 1.4663,-0.01047 2.22167,-0.01587c2.15263,0.11602 4.03786,0.5228 6.10645,1.11353c0,1.65 0,3.3 0,5c-0.66,0 -1.32,0 -2,0c0,-0.66 0,-1.32 0,-2c-0.96937,-0.14437 -1.93875,-0.28875 -2.9375,-0.4375c-3.0625,-0.5625 -3.0625,-0.5625 -4.0625,-1.5625c-2.18293,-0.23482 -4.37203,-0.41363 -6.5625,-0.5625c-1.19754,-0.08379 -2.39508,-0.16758 -3.62891,-0.25391c-0.92683,-0.06058 -1.85367,-0.12117 -2.80859,-0.18359c0,-0.33 0,-0.66 0,-1z"/>
  <path transform="translate(316 231)" fill="#39382E" d="m200,99.74033c0.33,0 0.66,0 1,0c1.70417,5.15947 2.22226,9.44253 2.125,14.9375c-0.00902,0.68385 -0.01805,1.3677 -0.02734,2.07227c-0.02327,1.66356 -0.05913,3.32695 -0.09766,4.99023c-0.66,0 -1.32,0 -2,0c-0.33,-7.26 -0.66,-14.52 -1,-22z"/>
  <path transform="translate(179 158)" fill="#413F2C" d="m200,99.74033c4.19465,1.35429 6.34896,3.09384 9.1875,6.4375c0.67418,0.78246 1.34836,1.56492 2.04297,2.37109c1.76953,2.19141 1.76953,2.19141 3.76953,5.19141c-0.33,0.99 -0.66,1.98 -1,3c-0.76184,-0.961 -0.76184,-0.961 -1.53906,-1.94141c-4.06257,-5.10483 -8.17997,-10.13547 -12.46094,-15.05859z"/>
  <path transform="translate(84 105)" fill="#CDCDCD" d="m200,99.74033c0.66,0 1.32,0 2,0c0.33,8.91 0.66,17.82 1,27c-1.98,0.99 -1.98,0.99 -4,2c-0.66,-0.66 -1.32,-1.32 -2,-2c0.99,0 1.98,0 3,0c0,-8.91 0,-17.82 0,-27z"/>
  <path transform="translate(48 237)" fill="#FEF426" d="m200,99.74033c6.93,0 13.86,0 21,0c-1.65,1.65 -3.3,3.3 -5,5c0,-1.32 0,-2.64 0,-4c-0.99,0 -1.98,0 -3,0c-0.33,2.31 -0.66,4.62 -1,7c-0.33,0 -0.66,0 -1,0c-0.14438,-0.78375 -0.28875,-1.5675 -0.4375,-2.375c-0.44049,-2.58921 -0.44049,-2.58921 -1.5625,-4.625c-2.97,0 -5.94,0 -9,0c0,-0.33 0,-0.66 0,-1z"/>
  <path transform="translate(26 224)" fill="#535142" d="m200,99.74033c0.66,0 1.32,0 2,0c0,0.66 0,1.32 0,2c0.86625,0.26812 1.7325,0.53625 2.625,0.8125c3.30205,1.16183 6.27492,2.57007 9.375,4.1875c0.78375,0.39187 1.5675,0.78375 2.375,1.1875c0.53625,0.26812 1.0725,0.53625 1.625,0.8125c-3.08137,0.92719 -4.61671,1.14268 -7.67578,0.00391c-0.87012,-0.47567 -1.74024,-0.95133 -2.63672,-1.44141c-0.88301,-0.47309 -1.76602,-0.94617 -2.67578,-1.43359c-0.66387,-0.37254 -1.32774,-0.74508 -2.01172,-1.12891c0,-0.66 0,-1.32 0,-2c-1.32,-0.66 -2.64,-1.32 -4,-2c0.33,-0.33 0.66,-0.66 1,-1z"/>
  <path transform="translate(132 260)" fill="#CAC781" d="m200,99.74033c8.91,0 17.82,0 27,0c0,0.66 0,1.32 0,2c-8.73044,1.42862 -17.2291,0.65454 -26,0c-0.33,-0.66 -0.66,-1.32 -1,-2z"/>
  <path transform="translate(87 226)" fill="#E0DC80" d="m200,99.74033c0.66,0.33 1.32,0.66 2,1c-0.33,0.99 -0.66,1.98 -1,3c-2.0625,0.9375 -2.0625,0.9375 -5,2c-2.02557,1.04092 -4.03345,2.10924 -6.03516,3.19531c-1.96484,0.80469 -1.96484,0.80469 -5.96484,0.80469c0,-0.66 0,-1.32 0,-2c3.465,-0.495 3.465,-0.495 7,-1c0,-0.66 0,-1.32 0,-2c2.31,-0.66 4.62,-1.32 7,-2c0,-0.66 0,-1.32 0,-2c0.66,-0.33 1.32,-0.66 2,-1z"/>
  <path transform="translate(98 385)" fill="#353429" d="m200,99.74033c10.395,3.465 10.395,3.465 21,7c0,0.33 0,0.66 0,1c-5.50808,-0.59015 -10.64878,-1.56664 -16,-3c0,-0.66 0,-1.32 0,-2c-1.65,-0.33 -3.3,-0.66 -5,-1c0,-0.66 0,-1.32 0,-2z"/>
  <path transform="translate(78 231)" fill="#5D5C44" d="m200,99.74033c0,0.66 0,1.32 0,2c-2.31,0.33 -4.62,0.66 -7,1c0,0.66 0,1.32 0,2c-2.64,0.33 -5.28,0.66 -8,1c0.33,-0.99 0.66,-1.98 1,-3c2.14453,-0.94922 2.14453,-0.94922 4.8125,-1.6875c0.8727,-0.25137 1.74539,-0.50273 2.64453,-0.76172c2.54297,-0.55078 2.54297,-0.55078 6.54297,-0.55078z"/>
  <path transform="translate(16 212)" fill="#2E2D25" d="m200,99.74033c3.59635,3.49359 6.83452,7.11098 10,11c-0.33,0.66 -0.66,1.32 -1,2c-1.98,-1.98 -3.96,-3.96 -6,-6c-0.99,1.32 -1.98,2.64 -3,4c0,-3.63 0,-7.26 0,-11z"/>
  <path transform="translate(46 83)" fill="#0F0F0F" d="m200,99.74033c0.66,0 1.32,0 2,0c0.66,0.99 1.32,1.98 2,3c2.05925,0.72382 2.05925,0.72382 4,1c0,-0.66 0,-1.32 0,-2c-0.66,-0.33 -1.32,-0.66 -2,-1c1.98,0 3.96,0 6,0c-4.25347,4.86111 -4.25347,4.86111 -7.6875,5.5c-2.3125,-0.5 -2.3125,-0.5 -4.3125,-3.5c0,-0.99 0,-1.98 0,-3z"/>
  <path transform="translate(103 136)" fill="#B8AB1A" d="m200,99.74033c0,0.33 0,0.66 0,1c-0.69867,0.13277 -1.39734,0.26555 -2.11719,0.40234c-0.91008,0.17661 -1.82015,0.35321 -2.75781,0.53516c-0.90492,0.17402 -1.80984,0.34805 -2.74219,0.52734c-2.38237,0.4348 -2.38237,0.4348 -4.38281,1.53516c-2.33299,0.04022 -4.66707,0.0432 -7,0c4.68816,-4.68816 12.7514,-4.22722 19,-4z"/>
  <path transform="translate(80 95)" fill="#090909" d="m200,99.74033c2,1 2,1 2.62109,2.73438c0.42598,2.54706 0.47538,4.93418 0.44141,7.51562c-0.00902,0.89203 -0.01805,1.78406 -0.02734,2.70313c-0.01161,0.67546 -0.02321,1.35093 -0.03516,2.04687c-1.66858,-3.02034 -2.52328,-5.80646 -3.1875,-9.1875c-0.17918,-0.88043 -0.35836,-1.76086 -0.54297,-2.66797c-0.08894,-0.70769 -0.17789,-1.41539 -0.26953,-2.14453c0.33,-0.33 0.66,-0.66 1,-1z"/>
  <path transform="translate(233.25 384.895)" fill="#4C4B40" d="m200,99.74033c0.5775,0.3648 1.155,0.72961 1.75,1.10547c-2.906,1.25665 -4.79605,2 -8,2c0,0.66 0,1.32 0,2c-2.64,0.33 -5.28,0.66 -8,1c2.49962,-2.08302 5.15674,-3.74765 8,-5.3125c0.66,-0.36738 1.32,-0.73477 2,-1.11328c2,-0.57422 2,-0.57422 4.25,0.32031z"/>
  <path transform="translate(194 338)" fill="#C0B817" d="m200,99.74033c0.33,0.66 0.66,1.32 1,2c-5.16217,3.7543 -8.56014,5.67082 -15,5c2.84502,-1.89668 5.573,-3.23263 8.6875,-4.625c0.99387,-0.44602 1.98773,-0.89203 3.01172,-1.35156c0.75926,-0.33774 1.51851,-0.67547 2.30078,-1.02344z"/>
  <path transform="translate(174 250)" fill="#4D4D46" d="m200,99.74033c0.33,0.99 0.66,1.98 1,3c-5.0414,2.81533 -9.22621,4.51885 -15,5c2.4662,-2.4662 4.99405,-3.59283 8.125,-5.125c1.0957,-0.53883 2.19141,-1.07766 3.32031,-1.63281c0.84305,-0.40992 1.6861,-0.81985 2.55469,-1.24219z"/>
  <path transform="translate(102 386)" fill="#A49927" d="m200,99.74033c5.91293,0.64271 11.34245,2.19004 17,4c-0.33,0.66 -0.66,1.32 -1,2c-5.6914,-1.09698 -10.74568,-2.54053 -16,-5c0,-0.33 0,-0.66 0,-1z"/>
  <path transform="translate(303 200)" fill="#C8B815" d="m200,99.74033c0.99,0.33 1.98,0.66 3,1c0.94922,2.06641 0.94922,2.06641 1.6875,4.5625c0.25137,0.82629 0.50273,1.65258 0.76172,2.50391c0.18176,0.63808 0.36351,1.27617 0.55078,1.93359c-0.61875,-0.35063 -1.2375,-0.70125 -1.875,-1.0625c-0.70125,-0.30937 -1.4025,-0.61875 -2.125,-0.9375c-0.99,0.495 -0.99,0.495 -2,1c0,-2.97 0,-5.94 0,-9z"/>
  <path transform="translate(13 268)" fill="#A19621" d="m200,99.74033c2.7886,3.71814 3.45224,4.95153 4.1875,9.25c0.15855,0.89203 0.31711,1.78406 0.48047,2.70313c0.16435,1.0132 0.16435,1.0132 0.33203,2.04687c-1.32,-0.33 -2.64,-0.66 -4,-1c-0.33,-4.29 -0.66,-8.58 -1,-13z"/>
  <path transform="translate(93 234)" fill="#383834" d="m200,99.74033c0.66,0 1.32,0 2,0c1.3959,1.55003 2.71887,3.16634 4,4.8125c0.70125,0.89332 1.4025,1.78664 2.125,2.70703c1.34914,1.7848 2.63395,3.61889 3.875,5.48047c-4.21778,-1.34037 -6.18109,-2.96853 -8.8125,-6.5c-0.60457,-0.79406 -1.20914,-1.58812 -1.83203,-2.40625c-1.35547,-2.09375 -1.35547,-2.09375 -1.35547,-4.09375z"/>
  <path transform="translate(127 394)" fill="#686651" d="m200,99.74033c0.99,1.485 0.99,1.485 2,3c-5,-1 -10,-2 -15,-3c0,-0.33 0,-0.66 0,-1c4.5245,-1.41391 8.68761,-0.86585 13,1z"/>
  <path transform="translate(229 260)" fill="#9C962C" d="m200,99.74033c0.33,0 0.66,0 1,0c-0.49887,5.68713 -1.57335,9.84336 -4,15c-0.33,0.99 -0.66,1.98 -1,3c-0.66,-0.33 -1.32,-0.66 -2,-1c0.2545,-1.48206 0.52912,-2.96069 0.8125,-4.4375c0.15082,-0.82371 0.30164,-1.64742 0.45703,-2.49609c0.24106,-0.68192 0.48211,-1.36383 0.73047,-2.06641c0.99,-0.33 1.98,-0.66 3,-1c0.33,-2.31 0.66,-4.62 1,-7z"/>
  <path transform="translate(76 372)" fill="#393831" d="m200,99.74033c1.98,0.66 3.96,1.32 6,2c0,0.66 0,1.32 0,2c0.99,0 1.98,0 3,0c0,0.66 0,1.32 0,2c-4.21913,-0.47945 -6.79663,-1.16625 -10,-4c0.33,-0.66 0.66,-1.32 1,-2z"/>
  <path transform="translate(314 218)" fill="#5E5B42" d="m200,99.74033c0.33,0 0.66,0 1,0c0.38864,2.12255 0.76053,4.24817 1.125,6.375c0.20883,1.18336 0.41766,2.36672 0.63281,3.58594c0.07992,1.00289 0.15985,2.00578 0.24219,3.03906c-0.66,0.66 -1.32,1.32 -2,2c-1.42706,-5.30723 -2.40028,-9.53891 -1,-15z"/>
  <path transform="translate(42 342)" fill="#2E2C20" d="m200,99.74033c3.87051,3.07882 7.02911,6.00073 10,10c-3,0 -3,0 -4.82422,-1.67969c-0.61488,-0.72445 -1.22976,-1.4489 -1.86328,-2.19531c-0.62262,-0.7193 -1.24523,-1.43859 -1.88672,-2.17969c-1.42578,-1.94531 -1.42578,-1.94531 -1.42578,-3.94531z"/>
  <path transform="translate(313 290)" fill="#42402E" d="m200,99.74033c0.33,0 0.66,0 1,0c-0.4209,5.60462 -0.91613,10.72087 -3,16c-1.42945,-2.35439 -2.08661,-3.48032 -1.625,-6.25c0.20625,-0.5775 0.4125,-1.155 0.625,-1.75c0.66,0 1.32,0 2,0c0.33,-2.64 0.66,-5.28 1,-8z"/>
  <path transform="translate(9 141)" fill="#2F2F2F" d="m200,99.74033c-1.34603,4.0381 -3.65337,5.47295 -7,8c-0.66,0 -1.32,0 -2,0c0,-0.99 0,-1.98 0,-3c1.46094,-1.38672 1.46094,-1.38672 3.375,-2.6875c0.93973,-0.65549 0.93973,-0.65549 1.89844,-1.32422c1.72656,-0.98828 1.72656,-0.98828 3.72656,-0.98828z"/>
  <path transform="translate(196 117)" fill="#3C3921" d="m200,99.74033c5.41858,-0.22577 9.77488,0.5333 15,2c0,0.66 0,1.32 0,2c-1.65,0 -3.3,0 -5,0c0,-0.66 0,-1.32 0,-2c-3.3,-0.33 -6.6,-0.66 -10,-1c0,-0.33 0,-0.66 0,-1z"/>
  <path transform="translate(204 396)" fill="#5E5C4B" d="m200,99.74033c-2.96179,1.6711 -5.37071,2.32683 -8.75,2.625c-0.79922,0.07477 -1.59844,0.14953 -2.42188,0.22656c-0.60328,0.04899 -1.20656,0.09797 -1.82812,0.14844c0,-0.99 0,-1.98 0,-3c4.65537,-0.83797 8.37078,-1.01617 13,0z"/>
  <path transform="translate(274 149)" fill="#ACC091" d="m200,99.74033c-0.33,0.99 -0.66,1.98 -1,3c0.99,0.33 1.98,0.66 3,1c-0.66,0 -1.32,0 -2,0c-0.33,0.66 -0.66,1.32 -1,2c-1.7075,-1.28062 -3.37374,-2.61768 -5,-4c0,-0.66 0,-1.32 0,-2c3.75,-1.125 3.75,-1.125 6,0z"/>
  <path transform="translate(118 89)" fill="#060606" d="m200,99.74033c0.66,0 1.32,0 2,0c-0.28109,1.64767 -0.57519,3.29313 -0.875,4.9375c-0.16242,0.91652 -0.32484,1.83305 -0.49219,2.77734c-0.20883,0.75411 -0.41765,1.50821 -0.63281,2.28516c-0.99,0.495 -0.99,0.495 -2,1c0.14108,-1.4588 0.28802,-2.91704 0.4375,-4.375c0.08121,-0.81211 0.16242,-1.62422 0.24609,-2.46094c0.31641,-2.16406 0.31641,-2.16406 1.31641,-4.16406z"/>
  <path transform="translate(123 256)" fill="#515045" d="m200,99.74033c5.445,1.485 5.445,1.485 11,3c0,0.33 0,0.66 0,1c-4.8236,0.19294 -8.49647,-0.24252 -13,-2c0.66,-0.66 1.32,-1.32 2,-2z"/>
  <path transform="translate(138 117)" fill="#B6A91D" d="m200,99.74033c0,0.66 0,1.32 0,2c0.66,0.33 1.32,0.66 2,1c-3.63,0 -7.26,0 -11,0c0,-0.66 0,-1.32 0,-2c3.05848,-0.54373 5.88773,-1 9,-1z"/>
  <path transform="translate(196 226)" fill="#504E41" d="m200,99.74033c1.20776,3.62327 0.54311,4.64146 -1,8c-0.66,0 -1.32,0 -2,0c-0.33,0.66 -0.66,1.32 -1,2c0,-4.71906 1.28754,-6.27037 4,-10z"/>
  <path transform="translate(296 185)" fill="#B9AB1D" d="m200,99.74033c3.48331,3.01887 4.79157,5.5691 6,10c-1.875,-0.5 -1.875,-0.5 -4,-2c-0.98495,-2.65178 -1.45912,-5.20547 -2,-8z"/>
  <path transform="translate(27 155)" fill="#39393A" d="m200,99.74033c0.66,0.33 1.32,0.66 2,1c-2.64,2.64 -5.28,5.28 -8,8c-0.33,-0.66 -0.66,-1.32 -1,-2c4.75,-5.875 4.75,-5.875 7,-7z"/>
  <path transform="translate(245 380)" fill="#34332A" d="m200,99.74033c-7.28571,4.42857 -7.28571,4.42857 -12,5c7.71429,-6.42857 7.71429,-6.42857 12,-5z"/>
  <path transform="translate(24 313)" fill="#32312A" d="m200,99.74033c3.55008,3.90508 4.8182,6.97735 6,12c-2.65069,-2.47398 -4.71616,-4.57642 -6,-8c0,-1.32 0,-2.64 0,-4z"/>
  <path transform="translate(202 210)" fill="#DBD764" d="m200,99.74033c0.33,0 0.66,0 1,0c0.08131,1.43656 0.13934,2.87445 0.1875,4.3125c0.05221,1.20076 0.05221,1.20076 0.10547,2.42578c-0.35495,2.74024 -1.18663,3.55343 -3.29297,5.26172c0.14168,-1.43792 0.28851,-2.87532 0.4375,-4.3125c0.08121,-0.80051 0.16242,-1.60102 0.24609,-2.42578c0.31641,-2.26172 0.31641,-2.26172 1.31641,-5.26172z"/>
  <path transform="translate(172 152)" fill="#585646" d="m200,99.74033c0.99,0.33 1.98,0.66 3,1c0,0.66 0,1.32 0,2c2.475,0.99 2.475,0.99 5,2c-0.66,0.66 -1.32,1.32 -2,2c-0.66,-0.33 -1.32,-0.66 -2,-1c0,-0.66 0,-1.32 0,-2c-2.31,-0.66 -4.62,-1.32 -7,-2c0.99,-0.66 1.98,-1.32 3,-2z"/>
  <path transform="translate(96 383)" fill="#7C773F" d="m200,99.74033c2.16406,0.24219 2.16406,0.24219 4.625,0.875c0.81727,0.20367 1.63453,0.40734 2.47656,0.61719c0.93973,0.25136 0.93973,0.25136 1.89844,0.50781c-2.64739,1.46063 -3.89448,2 -7,2c-2.1875,-1 -2.1875,-1 -4,-2c0.66,-0.66 1.32,-1.32 2,-2z"/>
  <path transform="translate(310 211)" fill="#373421" d="m200,99.74033c2.17931,1.75864 2.93686,2.69396 3.51172,5.48047c0.05801,0.89332 0.11601,1.78664 0.17578,2.70703c0.06574,0.90105 0.13148,1.80211 0.19922,2.73047c0.03738,0.68707 0.07476,1.37414 0.11328,2.08203c-4,-7.93277 -4,-7.93277 -4,-13z"/>
  <path transform="translate(297 185)" fill="#494945" d="m200,99.74033c0.99,0 1.98,0 3,0c3.22266,5.27344 3.22266,5.27344 4,7c-0.33,0.66 -0.66,1.32 -1,2c-2.96866,-2.54456 -4.36198,-5.48995 -6,-9z"/>
  <path transform="translate(314 282)" fill="#74704A" d="m200,99.74033c0.33,0 0.66,0 1,0c0.22363,1.41433 0.42826,2.83168 0.625,4.25c0.11602,0.78891 0.23203,1.57781 0.35156,2.39063c0.02663,2.68089 -0.61064,4.08631 -1.97656,6.35937c-0.83797,-4.65537 -1.01617,-8.37078 0,-13z"/>
  <path transform="translate(18 218)" fill="#BBAD17" d="m200,99.74033c1.65,1.65 3.3,3.3 5,5c-1.98,0.33 -3.96,0.66 -6,1c0.33,-1.98 0.66,-3.96 1,-6z"/>
  <path transform="translate(287 169)" fill="#32312D" d="m200,99.74033c1.32,1.32 2.64,2.64 4,4c-0.33,0.99 -0.66,1.98 -1,3c-3,-2 -3,-2 -3.75,-4.0625c-0.0825,-0.63937 -0.165,-1.27875 -0.25,-1.9375c0.33,-0.33 0.66,-0.66 1,-1z"/>
  <path transform="translate(156 145)" fill="#D7D10A" d="m200,99.74033c2.64,0.33 5.28,0.66 8,1c0,0.66 0,1.32 0,2c-2.64,-0.33 -5.28,-0.66 -8,-1c0,-0.66 0,-1.32 0,-2z"/>
  <path transform="translate(50 146)" fill="#6A6A6B" d="m200,99.74033c-0.33,0.66 -0.66,1.32 -1,2c-2.64,0 -5.28,0 -8,0c1,-2 1,-2 2.8125,-2.6875c2.3757,-0.33939 3.92086,-0.04106 6.1875,0.6875z"/>
  <path transform="translate(225 125)" fill="#2F2E24" d="m200,99.74033c4.87363,0.45336 7.39042,1.70892 11,5c-4.87363,-0.45336 -7.39042,-1.70892 -11,-5z"/>
  <path transform="translate(98 385)" fill="#45443E" d="m200,99.74033c2.97,0.99 5.94,1.98 9,3c0,0.66 0,1.32 0,2c-1.32,0 -2.64,0 -4,0c0,-0.66 0,-1.32 0,-2c-1.65,-0.33 -3.3,-0.66 -5,-1c0,-0.66 0,-1.32 0,-2z"/>
  <path transform="translate(265 364)" fill="#31302A" d="m200,99.74033c0.66,0.33 1.32,0.66 2,1c-2.64,1.98 -5.28,3.96 -8,6c-0.33,-0.66 -0.66,-1.32 -1,-2c2.31,-1.65 4.62,-3.3 7,-5z"/>
  <path transform="translate(87 265)" fill="#403E28" d="m200,99.74033c6.625,-0.125 6.625,-0.125 10,1c0,0.66 0,1.32 0,2c-1.48008,-0.11362 -2.9591,-0.24123 -4.4375,-0.375c-0.82371,-0.06961 -1.64742,-0.13922 -2.49609,-0.21094c-0.68192,-0.13664 -1.36383,-0.27328 -2.06641,-0.41406c-0.33,-0.66 -0.66,-1.32 -1,-2z"/>
  <path transform="translate(90 226)" fill="#5D5D56" d="m200,99.74033c1.77706,2.66559 2.87548,5.02806 4,8c-0.99,0.495 -0.99,0.495 -2,1c-1.5625,-2.8125 -1.5625,-2.8125 -3,-6c0.33,-0.99 0.66,-1.98 1,-3z"/>
  <path transform="translate(26 224)" fill="#4C4A38" d="m200,99.74033c0.66,0 1.32,0 2,0c0,0.66 0,1.32 0,2c1.98,0.66 3.96,1.32 6,2c-0.99,0.66 -1.98,1.32 -3,2c-0.66,-0.33 -1.32,-0.66 -2,-1c0,-0.66 0,-1.32 0,-2c-1.32,-0.66 -2.64,-1.32 -4,-2c0.33,-0.33 0.66,-0.66 1,-1z"/>
  <path transform="translate(19 162)" fill="#4F5050" d="m200,99.74033c0.6875,1.75 0.6875,1.75 1,4c-1.3125,2.25 -1.3125,2.25 -3,4c-0.66,0 -1.32,0 -2,0c0,-0.99 0,-1.98 0,-3c0.66,0 1.32,0 2,0c0.66,-1.65 1.32,-3.3 2,-5z"/>
  <path transform="translate(258 139)" fill="#DBAD71" d="m200,99.74033c0.66,0.66 1.32,1.32 2,2c2.06874,0.64252 2.06874,0.64252 4,1c-0.33,0.99 -0.66,1.98 -1,3c-4.875,-1.75 -4.875,-1.75 -6,-4c0.33,-0.66 0.66,-1.32 1,-2z"/>
  <path transform="translate(249 137)" fill="#161616" d="m200,99.74033c0.99,0 1.98,0 3,0c0,0.66 0,1.32 0,2c2.475,0.99 2.475,0.99 5,2c-0.99,0.66 -1.98,1.32 -3,2c-1.65,-1.98 -3.3,-3.96 -5,-6z"/>
 </g>

</svg>